<?xml version="1.0" encoding="utf-8"?>
<!-- Generator: Adobe Illustrator 21.0.0, SVG Export Plug-In . SVG Version: 6.00 Build 0)  -->
<svg version="1.1" id="Layer_1" xmlns="http://www.w3.org/2000/svg" xmlns:xlink="http://www.w3.org/1999/xlink" x="0px" y="0px"
	 viewBox="0 0 80 80" style="enable-background:new 0 0 80 80;" xml:space="preserve">
<style type="text/css">
	.st0{fill:#5E6366;}
</style>
<title>Asset 1</title>
<g id="Layer_2">
	<g id="Layer_1-2">
		<path class="st0" d="M63.4,25.6c-4.5,0-8.9,1.9-12,5.1c-0.4-0.6-0.8-1.2-1.3-1.8c0.8-1.6,1.1-3.3,1.2-5.1c0-3-1.2-6-3.2-8.2
			c0.6-1.3,0.9-2.7,0.9-4.2C48.9,5.1,43.1,0,36,0S23.1,5.1,23.1,11.4c0,1.4,0.3,2.9,0.9,4.2c-2,2.3-3.2,5.2-3.2,8.2
			c0,1.8,0.4,3.5,1.2,5.1c-2.2,2.5-3.5,5.8-3.6,9.1C11.7,35.1,4,38.1,1.1,44.7S1.2,59.1,7.8,62c1.4,0.6,2.9,1,4.4,1.1V78H6.8
			c-0.6,0-1,0.4-1,1s0.4,1,1,1h63.1c0.6,0,1-0.4,1-1s-0.4-1-1-1H14.2V63.1c6.3-0.5,11.3-5.4,12-11.6c2.7,1.6,5.7,2.4,8.8,2.5l0.1,24
			h-5.5c-0.6,0-1,0.4-1,1s0.4,1,1,1h12.8c0.6,0,1-0.4,1-1s-0.4-1-1-1h-5.3L37,54c4.2-0.2,8.3-1.8,11.5-4.6c2.7,5.3,8,8.7,13.9,9.1
			V78H57c-0.6,0-1,0.4-1,1s0.4,1,1,1h12.8c0.6,0,1-0.4,1-1s-0.4-1-1-1h-5.4V58.5c9.1-0.6,15.9-8.5,15.3-17.6
			C79.1,32.3,72,25.6,63.4,25.6L63.4,25.6z M14.2,61.1V47.7c0-0.6-0.4-1-1-1s-1,0.4-1,1v7.9l-3-2.9c-0.4-0.4-1-0.4-1.4,0
			c-0.4,0.4-0.4,1,0,1.4l0,0l4.4,4.3v2.7c-6.1-0.6-10.6-5.9-10-12s5.9-10.6,12-10c1.4,0.1,2.8,0.5,4.1,1.2h0.1
			c0.6,3.9,2.7,7.5,5.9,9.9C24.3,55.8,19.9,60.6,14.2,61.1z M37,52l-0.1-35.3c0-0.6-0.4-1-1-1l0,0c-0.6,0-1,0.4-1,1L35,52
			c-8.2-0.4-14.7-6.3-14.7-13.6c0-3.2,1.3-6.3,3.6-8.6c0.3-0.3,0.4-0.8,0.1-1.2c-0.8-1.5-1.2-3.1-1.2-4.8c0-2.8,1.2-5.4,3.1-7.4
			c0.3-0.3,0.4-0.8,0.2-1.2c-0.6-1.2-1-2.5-1-3.9C25.1,6.2,30,2,36,2s10.9,4.2,10.9,9.4c0,1.4-0.3,2.7-1,3.9
			c-0.2,0.4-0.1,0.9,0.2,1.2c2,1.9,3.1,4.6,3.1,7.4c0,1.7-0.4,3.3-1.2,4.8c-0.2,0.4-0.1,0.8,0.2,1.2c0.7,0.8,1.3,1.6,1.8,2.5
			c-3.3,4.4-4.1,10.1-2.3,15.2C44.8,50.2,41,51.8,37,52z M64.4,56.5v-8.8l5.7-5.5c0.4-0.4,0.4-1,0-1.4c-0.4-0.4-1-0.4-1.4,0
			l-4.3,4.2v-5.8c0-0.6-0.4-1-1-1s-1,0.4-1,1v10.8L58,45.7c-0.4-0.4-1-0.4-1.4,0c-0.4,0.4-0.4,1,0,1.4l0,0l5.8,5.6v3.8
			C54.3,56,48.3,49,48.8,41c0.6-8,7.5-14.1,15.6-13.6S78.5,34.9,77.9,43C77.4,50.2,71.6,56,64.4,56.5L64.4,56.5z"/>
	</g>
</g>
</svg>
