<svg xmlns="http://www.w3.org/2000/svg" viewBox="0 0 145.09 133.37"><defs><style>.cls-1,.cls-2,.cls-3{fill:none;stroke:#000;stroke-linecap:round;stroke-miterlimit:10;}.cls-1{stroke-width:2.5px;}.cls-2{stroke-width:2px;}.cls-3{stroke-width:3px;}</style></defs><title>Asset 1</title><g id="Layer_2" data-name="Layer 2"><g id="Layer_1-2" data-name="Layer 1"><path d="M46.76,72.66C59.93,68.17,69,54.82,69,38.15,69,17.11,54.56,0,36.83,0S4.69,17.11,4.69,38.15c0,16.67,9.06,30,22.22,34.51C17,75.59,0,85.71,0,98.62v14.24H3V98.62c0-7,6.43-13.38,13.39-17.8l20.44,30,20.44-30c7,4.42,13.39,10.83,13.39,17.8v14.24h3V98.62C73.67,85.71,56.63,75.59,46.76,72.66ZM36.83,3c11.82,0,22,8.54,26.58,20.76-13.08,10.36-30,1.71-38.3-6.88a1.5,1.5,0,0,0-1.34-.43c-5.94,1.07-10.73,5-13.9,8.35C14.24,12,24.68,3,36.83,3ZM7.69,38.15a42.29,42.29,0,0,1,.48-6.31c.57-.9,6.63-10.23,15.39-12.28,9.13,9,26.68,17.56,40.86,7.21A41.55,41.55,0,0,1,66,38.15C66,57,53.45,71.28,36.83,71.28S7.69,57,7.69,38.15ZM19,79.29c4.84-2.69,9.58-4.34,12.31-4.48L26.65,90.54Zm17.86,26.19-8-11.74,5.59-18.95h4.84l5.59,18.95ZM47,90.54,42.38,74.81c2.73.14,7.47,1.79,12.31,4.48Z"/><ellipse cx="20.32" cy="38.55" rx="2.77" ry="3.52"/><ellipse cx="53.35" cy="38.55" rx="2.77" ry="3.52"/><path d="M36.83,50.07a1.5,1.5,0,0,0,1.5-1.5V37.12a1.5,1.5,0,0,0-3,0V48.57A1.5,1.5,0,0,0,36.83,50.07Z"/><rect x="51.59" y="105.14" width="9.33" height="3"/><path d="M115.84,93.16c13.17-4.49,22.22-17.84,22.22-34.51,0-21-14.42-38.15-32.15-38.15S73.77,37.61,73.77,58.65c0,16.67,9.06,30,22.22,34.51-9.87,2.93-26.91,13.05-26.91,26v14.24h3V119.12c0-7,6.43-13.38,13.39-17.8l20.44,30,20.44-30c7,4.42,13.39,10.83,13.39,17.8v14.24h3V119.12C142.75,106.21,125.71,96.09,115.84,93.16ZM105.91,23.5c11.82,0,22,8.54,26.58,20.76-13.08,10.36-30,1.71-38.3-6.88A1.5,1.5,0,0,0,92.86,37C86.91,38,82.13,41.91,79,45.3,83.32,32.52,93.76,23.5,105.91,23.5ZM76.77,58.65a42.29,42.29,0,0,1,.48-6.31c.57-.9,6.63-10.23,15.39-12.28,9.13,9,26.68,17.56,40.86,7.21a41.55,41.55,0,0,1,1.57,11.38c0,18.89-12.53,33.13-29.15,33.13S76.77,77.54,76.77,58.65ZM103.5,95.29h4.84m3.13,0c2.73.14,7.47,1.79,12.31,4.48L116.1,111l-2.18,3.2-8,11.74-8-11.74L95.73,111,88.05,99.79c4.84-2.69,9.58-4.34,12.31-4.48Z"/><ellipse cx="89.4" cy="59.05" rx="2.77" ry="3.52"/><ellipse cx="122.43" cy="59.05" rx="2.77" ry="3.52"/><path d="M105.91,72a1.5,1.5,0,0,0,1.5-1.5V61.88a1.5,1.5,0,0,0-3,0v8.61A1.5,1.5,0,0,0,105.91,72Z"/><rect x="120.66" y="125.64" width="9.33" height="3"/><path class="cls-1" d="M25.3,56.67a17.09,17.09,0,0,0,11.54,4.75A18.5,18.5,0,0,0,49,56.67"/><path class="cls-1" d="M94,77.54a17.09,17.09,0,0,0,11.54,4.75,18.5,18.5,0,0,0,12.21-4.75"/><path class="cls-2" d="M105.92,94.48s-11.63,3.2-8.64,7.25c2.4,3.25,9.15-6.67,9.15-6.67l1.91.48s9.69,3.46,8.61,6-8.16-1.22-10.38-6c0,0-5.59,9.83-5,15.25"/><path class="cls-2" d="M110.68,110.15s-2.1-6.11-5-13.67"/><path class="cls-3" d="M134.88,47.28s11.92,28.19,7.87,38.79-14.65,8.46-31.29,7.08"/><path class="cls-3" d="M77,47.28S65.08,75.48,69.13,86.08s14.65,8.46,31.29,7.08"/></g></g></svg>