<svg xmlns="http://www.w3.org/2000/svg" viewBox="0 0 75.54 73.3"><defs><style>.cls-1{fill:#606468;}</style></defs><title>Asset 1</title><g id="Layer_2" data-name="Layer 2"><g id="Layer_1-2" data-name="Layer 1"><path class="cls-1" d="M56.74,0a18.71,18.71,0,0,0-18.6,17.6H.94a.78.78,0,0,0-.7.3.78.78,0,0,0-.2.8l4.5,40.5L6,72.4a1.06,1.06,0,0,0,1,.9h43.8a1.06,1.06,0,0,0,1-.9l1.5-13.2,2.5-22c.4,0,.7.1,1.1.1a18.63,18.63,0,0,0,18.6-18.6A19,19,0,0,0,56.74,0Zm-6.9,71.4h-42L6.64,60.1h44.5Zm1.4-13.3H6.34L2,19.6h36.1A18.74,18.74,0,0,0,53.64,37ZM53.84,35a16.62,16.62,0,0,1-13.7-15.4h15.5Zm2.9.3h-.8l1.8-16.6a1.88,1.88,0,0,0-.2-.8,1.08,1.08,0,0,0-.7-.3H40.14a16.62,16.62,0,0,1,33.2,1A16.77,16.77,0,0,1,56.74,35.3Z"/></g></g></svg>