<svg xmlns="http://www.w3.org/2000/svg" viewBox="0 0 100 101.05"><title>Kafnu_HK_icons</title><path d="M86.07,63.81a.67.67,0,0,0-.13-.56,6.59,6.59,0,0,0-1.2-1.14c-1.58-1.16-3-2.13-4.4-3a36.93,36.93,0,0,0-6.23-3,.64.64,0,0,0-.23,0,.66.66,0,0,0-.23,1.28,35.77,35.77,0,0,1,6,2.93c1.35.81,2.76,1.76,4.3,2.89l.38.29L78.64,66.3l-.09-.06a30.2,30.2,0,0,0-9.73-4.48,17.41,17.41,0,0,0-3.88-.44A21.45,21.45,0,0,0,57,62.94c-1.84.72-3.65,1.57-5.43,2.4-1,.48-2.07,1-3.11,1.43a33,33,0,0,1-13.35,3,31.46,31.46,0,0,1-17-5.19l-.23-.14,5.2-4.23a.66.66,0,1,0-.84-1l-5.9,4.8a.66.66,0,0,0,0,1.06,33,33,0,0,0,18.74,6.06h0A34.31,34.31,0,0,0,49,68c1.05-.47,2.1-1,3.15-1.45,1.74-.82,3.54-1.66,5.34-2.37a20.18,20.18,0,0,1,7.43-1.53,16,16,0,0,1,3.58.4,29.48,29.48,0,0,1,9.71,4.57.66.66,0,0,0,.37.11.65.65,0,0,0,.29-.07l6.83-3.39A.66.66,0,0,0,86.07,63.81Z"/><path d="M67.66,31.93a9,9,0,0,0,9,9.14h.11a9.27,9.27,0,0,0,9.08-9,8.93,8.93,0,0,0-2.6-6.46,9.28,9.28,0,0,0-6.56-2.72A9,9,0,0,0,67.66,31.93Zm9-7.73h0a7.78,7.78,0,0,1,5.58,2.32A7.61,7.61,0,0,1,84.49,32a7.91,7.91,0,0,1-7.73,7.71h-.11A7.73,7.73,0,0,1,69,31.93,7.64,7.64,0,0,1,76.66,24.2Z"/><path d="M25.92,57.15c2.22,1.85,6.5,3,9.36,3.12h.54C41.2,60.28,45.93,58,50.1,56c2-.94,8.9-4,15.86-4A16.59,16.59,0,0,1,74,53.83a.67.67,0,0,0,.32.08A.66.66,0,0,0,75,53.1a52.76,52.76,0,0,0-6.74-14.95A34.5,34.5,0,0,0,50.94,25a36,36,0,0,0-11.39-1.62,50.21,50.21,0,0,0-11.22,1.21.66.66,0,0,0-.5.69l.24,3.48a.67.67,0,0,0,.24.46.69.69,0,0,0,.47.15h0a48.26,48.26,0,0,1,5.24-.3,27,27,0,0,1,7.94,1c5.93,1.85,8.12,4.55,8.78,5.63l.09.14L25.93,56.13a.66.66,0,0,0,0,1Zm26.17-20.6a.67.67,0,0,0,.21-.73c-.06-.18-1.56-4.41-9.92-7A28.37,28.37,0,0,0,34,27.73c-1.43,0-2.94.07-4.49.22l-.2,0-.16-2.24.17,0a53.7,53.7,0,0,1,10.26-1,34.52,34.52,0,0,1,10.9,1.54A33.15,33.15,0,0,1,67.14,38.88a53.26,53.26,0,0,1,6,12.75l.12.39-.38-.15A19.07,19.07,0,0,0,66,50.67c-7.29,0-14.44,3.17-16.53,4.17C45.45,56.77,40.9,59,35.87,59h-.55a18,18,0,0,1-7.66-2.19l-.24-.14Z"/></svg>