<svg xmlns="http://www.w3.org/2000/svg" viewBox="0 0 100 101.05"><defs><style>.a{fill:#606468;}</style></defs><title>Kafnu_HK_icons</title><path class="a" d="M74.45,27.92a.81.81,0,0,0-.5-.36l-.17,0a.81.81,0,0,0-.44.13L65,33a.81.81,0,0,0-.25,1.11l1,1.56-2.2.89a1.32,1.32,0,0,1-.5.1,1.25,1.25,0,0,1-.28,0l-5.31-1.12a23.32,23.32,0,0,0-9.09-.11l-5,.93A6.81,6.81,0,0,0,40,38.06l-.16.14-4.86-.77-.25-.07-.07,0L24.41,28.45a.8.8,0,1,0-1.05,1.21l10.29,8.95.16.11a3,3,0,0,0,.89.29l3.93.62-3.69,4.8a2.95,2.95,0,0,0,.56,4.14,3,3,0,0,0,3.14.26l9.05-4.73a1.34,1.34,0,0,1,1.35.06L68.51,56.79a2.35,2.35,0,0,1-1.27,4.32,2.35,2.35,0,0,1-1.2-.33L55.5,54.47a.81.81,0,0,0-.41-.11.8.8,0,0,0-.41,1.49l9.44,5.65a1.65,1.65,0,0,1,.53,2.32,2.69,2.69,0,0,1-3.52.88l-8.24-4.49a.8.8,0,0,0-1.15.93.79.79,0,0,0,.39.48l6,3.25,1.47.9a1.55,1.55,0,0,1,.72,1A1.59,1.59,0,0,1,60,68.08a2.46,2.46,0,0,1-3.19.87L50.4,65.72a.78.78,0,0,0-.36-.09.8.8,0,0,0-.77,1.05.79.79,0,0,0,.4.47l6,3L55,70.6a5.84,5.84,0,0,1-3.09.89,5.94,5.94,0,0,1-.89-.07l-5.48-.84.74-1.06a3.24,3.24,0,0,0-.6-4.33,3.18,3.18,0,0,0-1.37-.64l-.46-.1L44,64a3.55,3.55,0,0,0-3.29-4.59h-.44l0-.44a3.55,3.55,0,0,0-3.55-3.75,3.6,3.6,0,0,0-3,1.52l-.37.52-.35-.53A3.62,3.62,0,0,0,32,55.64a3.54,3.54,0,0,0-4.32.47l-.35.34-4.81-6.34a.81.81,0,0,0-.37-.27l-9.19-3.28a.82.82,0,0,0-.27,0,.8.8,0,0,0-.27,1.56l9,3.2,5,6.59L24.84,60a3.57,3.57,0,0,0,.92,5,3.51,3.51,0,0,0,2,.65h.43V66a3.63,3.63,0,0,0,1.54,3,3.49,3.49,0,0,0,3.26.41l.4-.14.15.4a3.55,3.55,0,0,0,4.9,1.94l.38-.18.2.37a3.22,3.22,0,0,0,2.84,1.7,3.18,3.18,0,0,0,2.53-1.25l.16-.2,6.26,1a7.73,7.73,0,0,0,1.15.09,7.4,7.4,0,0,0,5.23-2.16l.14-.14.2,0,.38,0A4.06,4.06,0,0,0,61.31,69a3.23,3.23,0,0,0,.6-2l.09-.39h.4A4.29,4.29,0,0,0,66,64.7a3.18,3.18,0,0,0,.51-1.59l0-.44.55,0h.16A4,4,0,0,0,71.11,58,1.87,1.87,0,0,0,71,57.7l-.13-.41,5.33-5,.41.65a.8.8,0,0,0,.51.36l.17,0a.81.81,0,0,0,.43-.13l8.32-5.33a.81.81,0,0,0,.25-1.11ZM29.27,63.33a1.92,1.92,0,0,1-1.12.65l-.34,0a2,2,0,0,1-1.19-.41,1.94,1.94,0,0,1-.46-2.68l2.36-3.37a1.93,1.93,0,0,1,1.58-.82,2,2,0,0,1,1,.3A1.93,1.93,0,0,1,32,58.27a2,2,0,0,1-.24,1.4Zm4.63,3a1,1,0,0,0-.07.14l-.09.17-.35.51A2,2,0,0,1,32.1,68a2.09,2.09,0,0,1-.36,0,2,2,0,0,1-1.63-3.1l.52-.76.09-.11c.73-1.07,1.6-2.34,2.37-3.49l2-2.91a2,2,0,0,1,1.64-.86,2,2,0,0,1,1.63,3.09Zm5.29,2.08-.07.12-.08.16-.55.8a2,2,0,0,1-2.57.62,2,2,0,0,1-1-1.28,2,2,0,0,1,.13-1.29L39,61.79A2,2,0,0,1,40.29,61l.29,0a2,2,0,0,1,1.24.44,2,2,0,0,1,.39,2.66l-1.13,1.65-.07.08ZM45,68.6l-1.81,2.6a1.61,1.61,0,0,1-2.78-1.59l2.06-3a1.59,1.59,0,0,1,1-.54h.22a1.59,1.59,0,0,1,1,.37A1.62,1.62,0,0,1,45,68.6ZM70,55.93l-.43-.35-.17-.13L49.91,42.82a3,3,0,0,0-3-.14l-9.05,4.73a1.34,1.34,0,0,1-1.43-.12,1.34,1.34,0,0,1-.25-1.88l4.26-5.54a5.23,5.23,0,0,1,3.2-2l5-.93a21.69,21.69,0,0,1,8.46.1l5.31,1.12a3,3,0,0,0,.61.06,2.89,2.89,0,0,0,1.1-.21l2.47-1,8.72,13.81Zm7.57-4.57-11-17.43,7-4.46,11,17.43Z"/><path class="a" d="M72.36,33.28a.62.62,0,0,0-1,.67l2.11,3.28a.62.62,0,0,0,1-.67Z"/></svg>