<svg xmlns="http://www.w3.org/2000/svg" viewBox="0 0 100 101.05"><defs><style>.a{fill:#606468;}</style></defs><title>Kafnu_HK_icons</title><path class="a" d="M84,74.25H16.59a.75.75,0,0,1-.64-.36l-4.6-7.66A.75.75,0,0,1,12,65.09H88.58a.75.75,0,0,1,.64,1.14l-4.6,7.66A.75.75,0,0,1,84,74.25Zm-67-1.5H83.56l3.7-6.16H13.32Z"/><path class="a" d="M50.29,32.89a.75.75,0,0,1-.75-.75v-4.6a.75.75,0,1,1,1.5,0v4.6A.75.75,0,0,1,50.29,32.89Z"/><path class="a" d="M54.88,28.3H45.69a.75.75,0,0,1,0-1.5h9.19a.75.75,0,0,1,0,1.5Z"/><path class="a" d="M84,66.59H16.59a.75.75,0,0,1-.75-.75,34.45,34.45,0,0,1,68.9,0A.75.75,0,0,1,84,66.59Zm-66.64-1.5H83.23a32.95,32.95,0,0,0-65.88,0Z"/><path class="a" d="M26.42,52.81a.75.75,0,0,1-.65-1.13A28.45,28.45,0,0,1,50.29,37.52a.75.75,0,0,1,0,1.5A26.94,26.94,0,0,0,27.06,52.43.75.75,0,0,1,26.42,52.81Z"/></svg>