<svg xmlns="http://www.w3.org/2000/svg" viewBox="0 0 100 101.05"><defs><style>.a{fill:none;stroke:#606468;stroke-linecap:round;stroke-linejoin:round;stroke-width:2px;}.b{fill:#606468;}</style></defs><title>Kafnu_HK_icons</title><path class="a" d="M56.36,79.32s-.57,6.09-6.09,6.09H35.8s-7.23.76-7.23-7.24V44.67s27.79.38,27.79-18.85"/><path class="a" d="M28.94,22.21a13.71,13.71,0,1,1,27.42,0V51.9"/><circle class="a" cx="64.95" cy="65.63" r="16.22"/><path class="b" d="M59.87,70.29a1,1,0,1,0-1.12,1.56,10.34,10.34,0,0,0,5.64,2.31v1.9a.83.83,0,0,0,1.66,0V74.22c3.25-.21,5.54-2.13,5.54-4.92,0-2.63-1.66-4.16-5.62-5V57.83a7.83,7.83,0,0,1,3.43,1.51.87.87,0,0,0,.57.18.94.94,0,0,0,1-.94,1.05,1.05,0,0,0-.52-.86,9.14,9.14,0,0,0-4.4-1.66V55.2a.83.83,0,1,0-1.66,0V56c-3.2.16-5.46,2.13-5.46,4.81s1.69,4.16,5.54,5.07v6.53A8.38,8.38,0,0,1,59.87,70.29ZM66,66.23c2.83.73,3.61,1.66,3.61,3.2,0,1.72-1.38,2.94-3.61,3.07Zm-5-5.54c0-1.59,1.33-2.83,3.54-2.94v6.14C61.64,63.14,60.94,62.2,60.94,60.69Z"/></svg>