<svg xmlns="http://www.w3.org/2000/svg" viewBox="0 0 100 101.05"><defs><style>.a{fill:#606468;}</style></defs><title>Kafnu_HK_icons</title><path class="a" d="M72.79,79.89a1,1,0,0,0-1-1H21.21a1,1,0,0,0,0,2H71.79A1,1,0,0,0,72.79,79.89Z"/><path class="a" d="M83,51.72c.86-2.07.41-6.59-1.2-8.2-2.09-2.34-5.74-2.69-7.73-2.69-.39,0-.75,0-1.06,0h-.21V35H20.39v9.37c0,3.76,0,10.77,8.62,20.61,1.88,2.15,3.06,7.28,3.35,9.07l.14.84H60.68l.14-.84c.27-1.66,1.36-6.47,3.12-8.78l.1-.13.14.07a2.32,2.32,0,0,0,.53.11C65.31,65.28,79.34,63.9,83,51.72Zm-20.33,12c-2.08,2.37-3.23,7.13-3.63,9.07l0,.16H34.18l0-.16c-.4-1.93-1.54-6.68-3.63-9.07-8.12-9.28-8.12-15.8-8.12-19.3V37h48.4v7.37C70.79,47.89,70.79,54.4,62.67,63.68Zm3.5-.61-.51.11.31-.41c6.82-9.08,6.82-14.9,6.82-18.38V42.88H73c.31,0,.67,0,1.08,0,1.83,0,4.33.35,5.81,2,1.07,1.07,1.84,4.07,1.21,6.32C79.23,57.31,74.07,61.43,66.17,63.07Z"/><path class="a" d="M34.54,20.67a1,1,0,0,0-1,1V30a1,1,0,1,0,2,0V21.67A1,1,0,0,0,34.54,20.67Z"/><path class="a" d="M45.3,15.89a1,1,0,0,0-1,1V30a1,1,0,1,0,2,0V16.89A1,1,0,0,0,45.3,15.89Z"/><path class="a" d="M56.06,24.26a1,1,0,0,0-1,1V30a1,1,0,0,0,2,0V25.26A1,1,0,0,0,56.06,24.26Z"/></svg>