<svg xmlns="http://www.w3.org/2000/svg" viewBox="0 0 100 101.05"><defs><style>.a{fill:#606468;}</style></defs><title>Kafnu_HK_icons</title><path class="a" d="M86,63.19A6.69,6.69,0,0,0,84.79,62c-1.59-1.16-3-2.13-4.41-3a37,37,0,0,0-6.25-3,.74.74,0,0,0-.26,0,.76.76,0,0,0-.26,1.48,35.62,35.62,0,0,1,6,2.93c1.35.81,2.76,1.76,4.29,2.88l.25.2-5.49,2.72,0,0a30.28,30.28,0,0,0-9.76-4.5,17.51,17.51,0,0,0-3.9-.44A21.55,21.55,0,0,0,57,62.84c-1.85.73-3.67,1.58-5.44,2.41l-.05,0c-1,.47-2,1-3.06,1.41a32.85,32.85,0,0,1-13.31,2.95,31.36,31.36,0,0,1-17-5.17L18,64.39l5.09-4.14a.76.76,0,0,0,.11-1.07.78.78,0,0,0-1.07-.11l-5.9,4.8a.76.76,0,0,0,.05,1.22,33.14,33.14,0,0,0,18.8,6.08,34.41,34.41,0,0,0,13.94-3.09c1.06-.47,2.12-1,3.15-1.45,1.73-.81,3.52-1.65,5.34-2.36a20.08,20.08,0,0,1,7.39-1.52,15.89,15.89,0,0,1,3.55.4,29.37,29.37,0,0,1,9.67,4.55.77.77,0,0,0,.76,0l6.83-3.39a.76.76,0,0,0,.41-.52h0A.77.77,0,0,0,86,63.19Z"/><path class="a" d="M76.62,41.17h.11a9.37,9.37,0,0,0,9.18-9.11,9,9,0,0,0-2.63-6.54,9.38,9.38,0,0,0-6.63-2.75,9,9,0,0,0-9.1,9.15A9.14,9.14,0,0,0,76.62,41.17Zm.14-1.52h-.11a7.63,7.63,0,0,1-7.57-7.72,7.54,7.54,0,0,1,7.58-7.63h0a7.68,7.68,0,0,1,5.5,2.29A7.51,7.51,0,0,1,84.39,32,7.81,7.81,0,0,1,76.76,39.64Z"/><path class="a" d="M35.28,60.37h.54c5.41,0,10.14-2.28,14.32-4.29,2-.94,8.88-4,15.82-4a16.49,16.49,0,0,1,8,1.84.78.78,0,0,0,.83-.06.76.76,0,0,0,.28-.78,52.74,52.74,0,0,0-6.75-15A34.61,34.61,0,0,0,51,24.89a36.09,36.09,0,0,0-11.42-1.63A50.25,50.25,0,0,0,28.3,24.47a.76.76,0,0,0-.57.79L28,28.75a.76.76,0,0,0,.27.53.79.79,0,0,0,.54.17h0a48.19,48.19,0,0,1,5.23-.3,26.89,26.89,0,0,1,7.91,1c5.9,1.84,8.07,4.52,8.73,5.59l0,.07L25.87,56.05a.76.76,0,0,0,0,1.18C28.1,59.09,32.41,60.29,35.28,60.37Zm.58-1.52h-.54a17.85,17.85,0,0,1-7.61-2.18l-.11-.07,24.56-20h0a.77.77,0,0,0,.24-.84c-.06-.18-1.6-4.46-10-7.07A28.47,28.47,0,0,0,34,27.63c-1.43,0-2.95.07-4.5.22h-.09L29.3,25.8l.08,0a53.62,53.62,0,0,1,10.24-1,34.42,34.42,0,0,1,10.87,1.53,33,33,0,0,1,16.58,12.6,53.17,53.17,0,0,1,6,12.72l.06.19L73,51.77a19.18,19.18,0,0,0-7-1.2c-7.31,0-14.53,3.2-16.57,4.18C45.41,56.67,40.88,58.86,35.87,58.86Z"/></svg>