<svg xmlns="http://www.w3.org/2000/svg" viewBox="0 0 100 101.05"><defs><style>.a{font-size:7px;fill:#fff;font-family:MyriadPro-Bold, Myriad Pro;}.b{font-weight:700;letter-spacing:0.1em;}.c{letter-spacing:0.11em;}.d{letter-spacing:0.01em;}.e{letter-spacing:0.1em;}.f{font-family:MyriadPro-Regular, Myriad Pro;}.g{letter-spacing:-0.01em;}.h{letter-spacing:0em;}.i{letter-spacing:0.03em;}.j{letter-spacing:0.03em;}.k{letter-spacing:-0.07em;}.l{letter-spacing:-0.03em;}.m{letter-spacing:-0.01em;}.n{letter-spacing:0em;}.o{letter-spacing:-0.01em;}.p{letter-spacing:-0.02em;}.q{fill:#606468;}</style></defs><title>Kafnu_HK_icons</title><text class="a" transform="translate(0 -29.7)"><tspan class="b">P<tspan class="c" x="4.77" y="0">L</tspan><tspan class="d" x="9.09" y="0">A</tspan><tspan class="e" x="13.71" y="0">Y</tspan></tspan><tspan class="f"><tspan class="g" x="0" y="11.4">U</tspan><tspan x="4.49" y="11.4">se of Ke</tspan><tspan class="h" x="26.92" y="11.4">r</tspan><tspan class="i" x="29.24" y="11.4">r</tspan><tspan class="j" x="31.7" y="11.4">y</tspan><tspan class="k" x="35.21" y="11.4">’</tspan><tspan x="36.15" y="11.4">s </tspan><tspan class="l" x="40.41" y="11.4">F</tspan><tspan x="43.64" y="11.4">itness </tspan><tspan class="m" x="62.01" y="11.4">C</tspan><tspan x="65.99" y="11.4">e</tspan><tspan class="n" x="69.5" y="11.4">n</tspan><tspan x="73.36" y="11.4">t</tspan><tspan class="o" x="75.67" y="11.4">r</tspan><tspan x="77.89" y="11.4">e &amp; </tspan><tspan class="p" x="0" y="19.8">P</tspan><tspan x="3.55" y="19.8">ool</tspan></tspan></text><path class="q" d="M80.49,33.14H79.34V31.51a3.09,3.09,0,0,0-3.09-3.09H71.68a3.09,3.09,0,0,0-3.09,3.09v6.54H65.32L65,37.2a7.66,7.66,0,0,0-7.24-4.86h-.24l-.08-.23a3.06,3.06,0,0,0-5-1.26l-.23.21L52,30.85a3,3,0,0,0-4.12,0l-.23.21-.23-.21a3,3,0,0,0-4.12,0l-.23.21-.23-.21a3.07,3.07,0,0,0-5.15,2.28v4.92H33.58V31.51a3.09,3.09,0,0,0-3.09-3.09H25.91a3.09,3.09,0,0,0-3.09,3.09v1.63H21.67a3.09,3.09,0,0,0-3.09,3.09V49.15a3.09,3.09,0,0,0,3.09,3.09h1.15v1.63A3.09,3.09,0,0,0,25.91,57h4.58a3.09,3.09,0,0,0,3.09-3.09V48.81h3.19l1,3.06a.81.81,0,0,0,.13.25L41,56.17,39,73.91a2.59,2.59,0,0,0,2.58,2.83H57.12a2.59,2.59,0,0,0,2.58-2.85l-2-17A1,1,0,0,1,58,56l6.28-5.38A3.74,3.74,0,0,0,65.38,49l.08-.23h3.13v5.06A3.09,3.09,0,0,0,71.68,57h4.58a3.09,3.09,0,0,0,3.09-3.09V52.24h1.15a3.09,3.09,0,0,0,3.09-3.09V36.23A3.09,3.09,0,0,0,80.49,33.14ZM22.82,50.64H21.67a1.49,1.49,0,0,1-1.49-1.49V36.23a1.49,1.49,0,0,1,1.49-1.49h1.15ZM32,53.87a1.49,1.49,0,0,1-1.49,1.49H25.91a1.49,1.49,0,0,1-1.49-1.49V31.51A1.49,1.49,0,0,1,25.91,30h4.58A1.49,1.49,0,0,1,32,31.51ZM53,33.13a1.49,1.49,0,0,1,3,0v6.74a1.67,1.67,0,0,1-.68,1.35l-.11.07a1.2,1.2,0,0,1-.26.11,1.6,1.6,0,0,1-.41.06l-.27,0L54,41.39a1.7,1.7,0,0,1-.38-.2l-.12-.08,0,0a1.6,1.6,0,0,1-.27-.35l-.07-.1,0,0A1.48,1.48,0,0,1,53,40Zm-4.58,0a1.49,1.49,0,0,1,3,0V40a1.49,1.49,0,1,1-3,0Zm-4.58,0a1.49,1.49,0,0,1,3,0V40a1.49,1.49,0,0,1-3,0Zm-4.58,0a1.49,1.49,0,0,1,3,0V40a1.49,1.49,0,0,1-.13.6.78.78,0,0,1-.1.15,1.47,1.47,0,0,1-.26.33l-.19.13a1.5,1.5,0,0,1-.34.18l-.25.05-.26,0h-.1a1.35,1.35,0,0,1-.31-.06,1.14,1.14,0,0,1-.24-.1l-.15-.1a1.66,1.66,0,0,1-.66-1.33ZM33.58,47.21V39.66H37.7V40a3.06,3.06,0,0,0,1.53,2.65l.19.1.26.12a3.93,3.93,0,0,0,.42.13l.11,0,.13,0h.13l.14,0h.25l.28,0a2.88,2.88,0,0,0,.37-.06l.26-.08.34-.13.24-.13.39-.26.1-.08.23-.21.23.21.1.07.29.21.39.21.12.06a3.13,3.13,0,0,0,.37.11l.19.06a3.13,3.13,0,0,0,.6.06,3,3,0,0,0,.69-.09l.15,0a2.77,2.77,0,0,0,.32-.1l.13-.07.11-.06.27-.15.15-.11.12-.09.11-.08.23-.2.23.2.25.19.14.1.38.2.13.07a3.08,3.08,0,0,0,.37.11l.19.06a3.12,3.12,0,0,0,.6.06,3,3,0,0,0,.69-.09l.11,0a2.89,2.89,0,0,0,.36-.11l.21-.1.3-.16L52,42.3l.28-.13.23.18.15.1.3.2.24.13.36.14.23.07a3.75,3.75,0,0,0,.45.07l.28,0,.18,0,.13,0h.11l.17,0,.13,0a2.57,2.57,0,0,0,.38-.12l.19-.08.22-.12a3.09,3.09,0,0,0,1.5-2l.24-1.1.41,1a1.43,1.43,0,0,1,.11.53v3.42A2,2,0,0,1,57.7,46l-.69.69a1.84,1.84,0,0,1-1.3.54ZM64,47.8a2.13,2.13,0,0,1-.74,1.62L57,54.8A2.59,2.59,0,0,0,56.1,57l2,17a1,1,0,0,1-1,1.08H41.61a1,1,0,0,1-1-1.08l2-18a.8.8,0,0,0-.16-.57l-3.24-4.19-.77-2.44H56.33a2,2,0,0,0,1.38-.57l1.62-1.62a1.93,1.93,0,0,0,.57-1.37v-4.1c0-1.29-.83-3.48-2.06-3.92l-.23-.08V33.93H58a6,6,0,0,1,5.53,3.84,7.77,7.77,0,0,1,.52,1.5Zm4.58-.6h-3V39.66h3Zm9.15,6.66a1.49,1.49,0,0,1-1.49,1.49H71.68a1.49,1.49,0,0,1-1.49-1.49V31.51A1.49,1.49,0,0,1,71.68,30h4.58a1.49,1.49,0,0,1,1.49,1.49ZM82,49.15a1.49,1.49,0,0,1-1.49,1.49H79.34V34.75h1.15A1.49,1.49,0,0,1,82,36.23Z"/></svg>