<svg xmlns="http://www.w3.org/2000/svg" viewBox="0 0 100 101.05"><defs><style>.a{font-size:7px;fill:#fff;font-family:MyriadPro-Bold, Myriad Pro;}.b{font-weight:700;letter-spacing:0.1em;}.c{letter-spacing:0.11em;}.d{letter-spacing:0.01em;}.e{letter-spacing:0.1em;}.f{font-family:MyriadPro-Regular, Myriad Pro;}.g{letter-spacing:-0.01em;}.h{letter-spacing:-0.01em;}.i{letter-spacing:0.02em;}.j{letter-spacing:-0.01em;}.k{fill:#606468;}.l{fill:none;stroke:#606468;stroke-miterlimit:10;stroke-width:1.51px;}</style></defs><title>Kafnu_HK_icons</title><text class="a" transform="translate(0 -29.7)"><tspan class="b">P<tspan class="c" x="4.77" y="0">L</tspan><tspan class="d" x="9.09" y="0">A</tspan><tspan class="e" x="13.71" y="0">Y</tspan></tspan><tspan class="f"><tspan class="g" x="0" y="11.4">C</tspan><tspan x="3.98" y="11.4">om</tspan><tspan class="h" x="13.66" y="11.4">f</tspan><tspan x="15.62" y="11.4">o</tspan><tspan class="i" x="19.46" y="11.4">r</tspan><tspan x="21.92" y="11.4">table </tspan><tspan class="j" x="38.23" y="11.4">r</tspan><tspan x="40.45" y="11.4">est facilities</tspan></tspan></text><path class="k" d="M82.39,39.92H82V36.84a9.52,9.52,0,0,0-9.51-9.51H29.68a9.52,9.52,0,0,0-9.5,9.51v3.07h-.41a6.34,6.34,0,0,0-6.18,6.31V61.77A7.45,7.45,0,0,0,21,69.2H81.14a7.45,7.45,0,0,0,7.44-7.44V46.22A6.34,6.34,0,0,0,82.39,39.92ZM26.77,67.52H21a5.76,5.76,0,0,1-5.75-5.75V46.22a4.63,4.63,0,0,1,4.63-4.63h2.25a4.63,4.63,0,0,1,4.63,4.63Zm46.93,0H28.46V57.14H73.71Zm0-12.07H28.46V46.22a6.34,6.34,0,0,0-6.19-6.31h-.41V36.84A7.83,7.83,0,0,1,29.68,29h42.8a7.83,7.83,0,0,1,7.82,7.82v3.07h-.41a6.35,6.35,0,0,0-6.18,6.31ZM86.9,61.77a5.76,5.76,0,0,1-5.75,5.75H75.39V46.22A4.63,4.63,0,0,1,80,41.6h2.25a4.63,4.63,0,0,1,4.63,4.63Z"/><path class="l" d="M34.9,68.33v1.27a2.31,2.31,0,0,1-2.11,2.47H22.42a2.31,2.31,0,0,1-2.11-2.47V68.33Z"/><path class="l" d="M81.81,68.33v1.27a2.31,2.31,0,0,1-2.11,2.47H69.34a2.31,2.31,0,0,1-2.11-2.47V68.33Z"/></svg>