<svg xmlns="http://www.w3.org/2000/svg" viewBox="0 0 100 101.05"><defs><style>.a{font-size:7px;fill:#fff;font-family:MyriadPro-Bold, Myriad Pro;}.b{font-weight:700;letter-spacing:0.1em;}.c{letter-spacing:0.11em;}.d{letter-spacing:0.01em;}.e{letter-spacing:0.1em;}.f{font-family:MyriadPro-Regular, Myriad Pro;}.g{letter-spacing:-0.01em;}.h{fill:#606468;}</style></defs><title>Kafnu_HK_icons</title><text class="a" transform="translate(0 -29.7)"><tspan class="b">P<tspan class="c" x="4.77" y="0">L</tspan><tspan class="d" x="9.09" y="0">A</tspan><tspan class="e" x="13.71" y="0">Y</tspan></tspan><tspan class="f"><tspan x="0" y="11.4">Daily member hap</tspan><tspan class="g" x="53.79" y="11.4">p</tspan><tspan x="57.73" y="11.4">y hour (M-F)</tspan></tspan></text><path class="h" d="M68.27,21.53A14.81,14.81,0,0,0,53.55,35.45H24.11a.71.71,0,0,0-.71.87l3.56,32,1.19,10.44a.84.84,0,0,0,.79.71H63.6a.84.84,0,0,0,.79-.71l1.19-10.44,2-17.41c.32,0,.55.08.87.08A14.74,14.74,0,0,0,83.14,36.32,15,15,0,0,0,68.27,21.53ZM62.81,78H29.57l-.95-8.94H63.83ZM63.91,67.5H28.39L25,37H53.55A14.83,14.83,0,0,0,65.81,50.8ZM66,49.22A13.15,13.15,0,0,1,55.13,37H67.39Zm2.29.24h-.63l1.42-13.14a1.49,1.49,0,0,0-.16-.63.85.85,0,0,0-.55-.24H55.13a13.15,13.15,0,0,1,26.27.79A13.27,13.27,0,0,1,68.27,49.46Z"/></svg>