<svg xmlns="http://www.w3.org/2000/svg" viewBox="0 0 100 101.05"><defs><style>.a{fill:#606468;}</style></defs><title>Kafnu_HK_icons</title><path class="a" d="M51.08,62.27a1,1,0,0,0-1,1v4a1,1,0,1,0,2.09,0v-4A1,1,0,0,0,51.08,62.27Z"/><path class="a" d="M51.08,52.47a1,1,0,0,0-1,1v4.78a1,1,0,0,0,2.09,0V53.51A1,1,0,0,0,51.08,52.47Z"/><path class="a" d="M51.08,71.45a1,1,0,0,0-1,1v4.78a1,1,0,1,0,2.09,0V72.49A1,1,0,0,0,51.08,71.45Z"/><path class="a" d="M64.47,18.18H54A14,14,0,0,0,40.12,30.94v.13H40A16.6,16.6,0,0,0,24.71,46.35v.11l-.1,0a1,1,0,0,0-.72.93,1,1,0,0,0,1,1H57.3a1,1,0,0,0,1-1,1,1,0,0,0-.72-.93l-.1,0v-.11A16.34,16.34,0,0,0,42.35,31.08h-.15l0-.15A11.94,11.94,0,0,1,54,20.26H64.47A11.75,11.75,0,0,1,76.21,32V81.83a1,1,0,1,0,2.09,0V32A13.85,13.85,0,0,0,64.47,18.18Zm-9.05,28v.16H26.78v-.16a14.36,14.36,0,0,1,28.62,0Z"/><path class="a" d="M41,73.84a1,1,0,0,0-1,1v2.39a1,1,0,1,0,2.09,0V74.88A1,1,0,0,0,41,73.84Z"/><path class="a" d="M31,62.27a1,1,0,0,0-1,1v4a1,1,0,0,0,2.09,0v-4A1,1,0,0,0,31,62.27Z"/><path class="a" d="M41,59.56a1.13,1.13,0,0,0-1,1v9.15a1.13,1.13,0,0,0,1,1,1,1,0,0,0,1-1V60.61A1,1,0,0,0,41,59.56Z"/><path class="a" d="M31,52.47a1,1,0,0,0-1,1v4.78a1,1,0,0,0,2.09,0V53.51A1,1,0,0,0,31,52.47Z"/><path class="a" d="M31,71.45a1,1,0,0,0-1,1v4.78a1,1,0,0,0,2.09,0V72.49A1,1,0,0,0,31,71.45Z"/><path class="a" d="M41,52.47a1,1,0,0,0-1,1V55.9a1.08,1.08,0,0,0,1,1,1,1,0,0,0,1-1V53.51A1,1,0,0,0,41,52.47Z"/></svg>