<svg xmlns="http://www.w3.org/2000/svg" viewBox="0 0 100 101.05"><defs><style>.a{fill:#606468;}</style></defs><title>Kafnu_HK_icons</title><path class="a" d="M56.65,73.36a1.05,1.05,0,0,0-.44-1.55,6.76,6.76,0,0,0-2.8-.53,7,7,0,0,0-3.9,1.1,5.12,5.12,0,0,1-5.8,0,7.46,7.46,0,0,0-7.8,0,5.12,5.12,0,0,1-5.8,0,8.38,8.38,0,0,0-4.1-1.1,7,7,0,0,0-3.9,1.1,4.76,4.76,0,0,1-2.9.9,1,1,0,1,0,0,2,7,7,0,0,0,3.9-1.1,5.12,5.12,0,0,1,5.8,0,7.46,7.46,0,0,0,7.8,0,5.12,5.12,0,0,1,5.8,0,7.46,7.46,0,0,0,7.8,0,4.76,4.76,0,0,1,2.9-.9,4.54,4.54,0,0,1,2.1.44,1.06,1.06,0,0,0,1.35-.36Z"/><path class="a" d="M40.54,79.21a1,1,0,0,0,.83,1,5,5,0,0,1,2,.83,7.46,7.46,0,0,0,7.8,0,5.12,5.12,0,0,1,5.8,0,7.46,7.46,0,0,0,7.8,0,5.12,5.12,0,0,1,5.8,0,7.46,7.46,0,0,0,7.8,0,4.76,4.76,0,0,1,2.9-.9.94.94,0,0,0,1-1c0-.6-.2-1-.7-1a7,7,0,0,0-3.9,1.1,5.12,5.12,0,0,1-5.8,0,7.46,7.46,0,0,0-7.8,0,5.12,5.12,0,0,1-5.8,0,7.65,7.65,0,0,0-4-1.1,7,7,0,0,0-3.9,1.1,5.12,5.12,0,0,1-5.8,0,7.06,7.06,0,0,0-2.95-1,1,1,0,0,0-1,.86Z"/><path class="a" d="M65,87.15a1,1,0,0,0-1.32-.47,4.57,4.57,0,0,1-2,.4,4.76,4.76,0,0,1-2.9-.9,7.46,7.46,0,0,0-7.8,0,5.12,5.12,0,0,1-5.8,0,7.46,7.46,0,0,0-7.8,0,5.12,5.12,0,0,1-5.8,0,8.38,8.38,0,0,0-4.1-1.1,7,7,0,0,0-3.9,1.1,4.76,4.76,0,0,1-2.9.9,1,1,0,0,0,0,2,7,7,0,0,0,3.9-1.1,5.12,5.12,0,0,1,5.8,0,7.46,7.46,0,0,0,7.8,0,5.12,5.12,0,0,1,5.8,0,7.46,7.46,0,0,0,7.8,0,5.12,5.12,0,0,1,5.8,0,7,7,0,0,0,3.9,1.1,6.66,6.66,0,0,0,3.08-.66A1,1,0,0,0,65,87.15Z"/><path class="a" d="M16,65h-2.5a1,1,0,0,0,0,2h75.1a1,1,0,0,0,0-2h-2.5V13a.94.94,0,0,0-1-1H65.83a.94.94,0,0,0-1,1v36.4l-2.35-8.8V28.38a.94.94,0,0,0-1-1H43.08a.94.94,0,0,0-1,1v36.7H35.43Zm68.1-51v51.1H66.83V14Zm-40,15.4h16.4v11.5a1.42,1.42,0,0,0,.2.6l4,11.1v12.5H44.08Z"/><path class="a" d="M24,39.09h1.65v4.48H24Z"/><path class="a" d="M24,48.32h1.65V52.8H24Z"/><path class="a" d="M24,57.55h1.65V62H24Z"/><path class="a" d="M20.73,39.09h1.65v4.48H20.73Z"/><path class="a" d="M20.73,48.32h1.65V52.8H20.73Z"/><path class="a" d="M20.73,57.55h1.65V62H20.73Z"/><path class="a" d="M27.32,39.09H29v4.48H27.32Z"/><path class="a" d="M24,29.86h1.65v4.48H24Z"/><path class="a" d="M20.73,29.86h1.65v4.48H20.73Z"/><path class="a" d="M27.32,29.86H29v4.48H27.32Z"/><path class="a" d="M27.32,48.32H29V52.8H27.32Z"/><path class="a" d="M27.32,57.55H29V62H27.32Z"/><path class="a" d="M51.61,44.36h1.65v4.48H51.61Z"/><path class="a" d="M51.61,51h1.65v4.48H51.61Z"/><path class="a" d="M51.61,57.55h1.65V62H51.61Z"/><path class="a" d="M47.48,44.36h1.65v4.48H47.48Z"/><path class="a" d="M47.48,51h1.65v4.48H47.48Z"/><path class="a" d="M47.48,57.55h1.65V62H47.48Z"/><path class="a" d="M55.73,44.36h1.65v4.48H55.73Z"/><path class="a" d="M51.61,37.23h1.65v4.48H51.61Z"/><path class="a" d="M47.48,37.23h1.65v4.48H47.48Z"/><path class="a" d="M55.73,37.23h1.65v4.48H55.73Z"/><path class="a" d="M55.73,51h1.65v4.48H55.73Z"/><path class="a" d="M55.73,57.55h1.65V62H55.73Z"/><path class="a" d="M74.77,41.69h1.65v4.48H74.77Z"/><path class="a" d="M74.77,49.62h1.65V54.1H74.77Z"/><path class="a" d="M74.77,57.55h1.65V62H74.77Z"/><path class="a" d="M70.65,41.69H72.3v4.48H70.65Z"/><path class="a" d="M70.65,49.62H72.3V54.1H70.65Z"/><path class="a" d="M70.65,57.55H72.3V62H70.65Z"/><path class="a" d="M78.9,41.69h1.65v4.48H78.9Z"/><path class="a" d="M74.77,33.76h1.65v4.48H74.77Z"/><path class="a" d="M70.65,33.76H72.3v4.48H70.65Z"/><path class="a" d="M78.9,33.76h1.65v4.48H78.9Z"/><path class="a" d="M74.77,25.84h1.65v4.48H74.77Z"/><path class="a" d="M70.65,25.84H72.3v4.48H70.65Z"/><path class="a" d="M78.9,25.84h1.65v4.48H78.9Z"/><path class="a" d="M74.77,17.91h1.65v4.48H74.77Z"/><path class="a" d="M70.65,17.91H72.3v4.48H70.65Z"/><path class="a" d="M78.9,17.91h1.65v4.48H78.9Z"/><path class="a" d="M78.9,49.62h1.65V54.1H78.9Z"/><path class="a" d="M78.9,57.55h1.65V62H78.9Z"/><path class="a" d="M44.63,65.33h-.82V43.07a3.28,3.28,0,0,0-2.13-3l-7.76-2.59V20.65a.83.83,0,0,0-1.06-.79L17.95,24.33a3.18,3.18,0,0,0-2.17,2.91V65.33H15A.82.82,0,0,0,15,67H44.63a.82.82,0,0,0,0-1.65ZM41.16,41.68a1.63,1.63,0,0,1,1,1.39V65.33H33.92V39.27ZM17.43,27.25a1.54,1.54,0,0,1,1-1.33l13.85-4.15V65.33H17.43Z"/></svg>