<svg xmlns="http://www.w3.org/2000/svg" viewBox="0 0 100 101.05"><title>Kafnu_HK_icons</title><path d="M74.47,36.09a16.59,16.59,0,0,0-12,5.13,15.63,15.63,0,0,0-1.31-1.76,11.89,11.89,0,0,0,1.15-5.1,12.44,12.44,0,0,0-3.21-8.23A10.14,10.14,0,0,0,60,21.94c0-6.29-5.8-11.41-12.92-11.41S34.18,15.65,34.18,21.94a10.14,10.14,0,0,0,.91,4.19,12.44,12.44,0,0,0-3.2,8.23A11.93,11.93,0,0,0,33,39.46a14.5,14.5,0,0,0-3.65,9.13,13.07,13.07,0,1,0-6.12,25V88.52H17.85a1,1,0,1,0,0,2H80.9a1,1,0,0,0,0-2H25.27V73.61A13.12,13.12,0,0,0,37.31,62a19.26,19.26,0,0,0,8.8,2.56l.08,24H40.7a1,1,0,0,0,0,2h12.8a1,1,0,0,0,0-2h-5.3l-.08-24A18.82,18.82,0,0,0,59.64,60,16.6,16.6,0,0,0,73.5,69V88.52H68.1a1,1,0,0,0,0,2H80.9a1,1,0,0,0,0-2H75.5V69a16.49,16.49,0,0,0-1-32.94ZM25.27,71.61V58.26a1,1,0,0,0-2,0v7.9l-3-2.94a1,1,0,1,0-1.39,1.44L23.27,69v2.66a11.07,11.07,0,1,1,6.12-20.84l.12,0a15.1,15.1,0,0,0,5.88,9.85A11.11,11.11,0,0,1,25.27,71.61Zm22.84-9.07L48,27.25a1,1,0,0,0-1-1h0a1,1,0,0,0-1,1l.11,35.28C37.9,62.09,31.37,56.19,31.37,49A12.57,12.57,0,0,1,35,40.32a1,1,0,0,0,.16-1.16,10,10,0,0,1-1.24-4.8A10.54,10.54,0,0,1,37,27a1,1,0,0,0,.17-1.17,8.26,8.26,0,0,1-1-3.9c0-5.19,4.9-9.41,10.92-9.41S58,16.75,58,21.94a8.24,8.24,0,0,1-1,3.9A1,1,0,0,0,57.19,27a10.54,10.54,0,0,1,3.12,7.35,10,10,0,0,1-1.24,4.8,1,1,0,0,0,.16,1.16,13.77,13.77,0,0,1,1.89,2.5A16.23,16.23,0,0,0,58.81,58,16.69,16.69,0,0,1,48.11,62.53ZM75.5,67V58.22l5.71-5.52a1,1,0,1,0-1.39-1.44L75.5,55.44V49.6a1,1,0,0,0-2,0V60.42l-4.38-4.24a1,1,0,1,0-1.39,1.44L73.5,63.2V67a14.59,14.59,0,1,1,2,0Z"/></svg>