<svg xmlns="http://www.w3.org/2000/svg" viewBox="0 0 100 101.05"><defs><style>.a{fill:#606468;}</style></defs><title>Kafnu_HK_icons</title><path class="a" d="M72.57,18.85H23.43a1.24,1.24,0,0,0-1.24,1.24v4.27a1.24,1.24,0,0,0,1.24,1.24h1.85V82.1H23.59a1.4,1.4,0,0,0-1.4,1.4v4a1.4,1.4,0,0,0,1.4,1.4H76.41a1.4,1.4,0,0,0,1.4-1.4v-4a1.4,1.4,0,0,0-1.4-1.4H74.72V25.59h1.84a1.24,1.24,0,0,0,1.24-1.24V20.08a1.24,1.24,0,0,0-1.24-1.24h-4ZM23.78,20.43H76.22V24H23.78ZM76.22,87.26H23.78V83.69H76.22ZM68.77,54.94h-18v-12h18Zm0,1.59v12h-18v-12Zm0,13.58v12h-18v-12Zm0-28.75h-18v-12h18Zm-19.57,0h-18v-12h18v12Zm-18,1.59h18v12h-18Zm0,13.58h18v12h-18Zm0,13.58h18v12h-18Zm41.91,12H70.36V29.25a1.48,1.48,0,0,0-1.48-1.48H31.12a1.48,1.48,0,0,0-1.48,1.48V82.1H26.87V25.59H73.13V82.1Z"/></svg>