<svg xmlns="http://www.w3.org/2000/svg" viewBox="0 0 100 101.05"><defs><style>.a{fill:#606468;}</style></defs><title>Kafnu_HK_icons</title><path class="a" d="M74.47,36.19a16.4,16.4,0,0,0-11.93,5.1l-.09.09-.07-.11a15.44,15.44,0,0,0-1.3-1.75l0,0,0-.06a11.81,11.81,0,0,0,1.15-5.06A12.38,12.38,0,0,0,59,26.19l0,0,0-.06a10.05,10.05,0,0,0,.9-4.15c0-6.24-5.75-11.31-12.82-11.31S34.28,15.7,34.28,21.94a10.06,10.06,0,0,0,.9,4.15l0,.06,0,0A12.39,12.39,0,0,0,32,34.36a11.84,11.84,0,0,0,1.15,5.06l0,.06,0,0a14.48,14.48,0,0,0-3.62,9.06v.15l-.13-.06a13.22,13.22,0,0,0-5.11-1.06,13,13,0,0,0-1,25.88h.09V88.62H17.85a.9.9,0,0,0,0,1.8H80.9a.9.9,0,0,0,0-1.8H75.4V68.94h.09a16.39,16.39,0,0,0-1-32.75ZM34.89,40.25a.89.89,0,0,0,.14-1,10.14,10.14,0,0,1-1.25-4.84,10.64,10.64,0,0,1,3.15-7.42.9.9,0,0,0,.15-1,8.36,8.36,0,0,1-1-3.95c0-5.25,4.94-9.51,11-9.51s11,4.27,11,9.51a8.34,8.34,0,0,1-1,3.94.9.9,0,0,0,.15,1.05,10.64,10.64,0,0,1,3.15,7.42,10.12,10.12,0,0,1-1.25,4.84.9.9,0,0,0,.14,1,13.87,13.87,0,0,1,1.9,2.52l0,.06,0,.05A16.13,16.13,0,0,0,58.91,58l0,.06,0,0a16.74,16.74,0,0,1-10.77,4.54H48L47.9,27.25a.9.9,0,1,0-1.8,0l.11,35.39h-.11C37.79,62.19,31.27,56.18,31.27,49A12.67,12.67,0,0,1,34.89,40.25ZM24.27,57.36a.9.9,0,0,0-.9.9V66.4l-3.21-3.1a.9.9,0,0,0-1.25,1.29L23.37,69v2.77h-.11a11.17,11.17,0,1,1,6.17-21l.11,0,.06,0v.06a15.24,15.24,0,0,0,5.88,9.87,11.15,11.15,0,0,1-10.21,11h-.11V58.26A.9.9,0,0,0,24.27,57.36Zm.9,31.26V73.51h.09A13,13,0,0,0,37.21,62l0-.15.13.08a19.21,19.21,0,0,0,8.76,2.55h.09l.08,24.18Zm48.43,0H48.09L48,64.44h.1A18.74,18.74,0,0,0,59.58,59.9l.1-.09.06.12a16.55,16.55,0,0,0,13.77,9h.09Zm1.91-21.49H75.4l0-9,5.7-5.52a.9.9,0,0,0,0-1.27.9.9,0,0,0-1.27,0L75.4,55.67V49.6a.9.9,0,0,0-1.8,0V60.65L69,56.25a.9.9,0,0,0-1.25,1.29l5.8,5.66v3.94h-.11a14.69,14.69,0,1,1,2,0Z"/></svg>