<svg xmlns="http://www.w3.org/2000/svg" viewBox="0 0 100 101.05"><defs><style>.a{fill:#606468;}</style></defs><title>Kafnu_HK_icons</title><polygon class="a" points="87.2 80.06 88.49 80.06 83.9 53.81 88.06 27.63 86.45 27.63 82.29 54.49 75.89 54.49 75.89 37.66 27.92 37.66 27.92 54.49 21.52 54.49 17.36 27.63 15.75 27.63 19.91 54.03 15.32 80.06 16.61 80.06 21.32 56.35 27.92 56.35 27.92 80.06 29.44 80.06 29.44 56.35 35.87 56.35 38.17 80.06 39.67 80.06 36.95 54.49 29.33 54.49 29.33 39.09 74.48 39.09 74.48 54.49 66.86 54.49 64.14 80.06 65.65 80.06 67.95 56.35 74.37 56.35 74.37 80.06 75.89 80.06 75.89 56.35 82.48 56.35 87.2 80.06"/><polygon class="a" points="75.89 41.92 27.92 41.92 29.33 43.34 74.48 43.34 75.89 41.92"/></svg>