<?xml version="1.0" encoding="utf-8"?>
<!-- Generator: Adobe Illustrator 21.1.0, SVG Export Plug-In . SVG Version: 6.00 Build 0)  -->
<svg version="1.1" id="Layer_1" xmlns="http://www.w3.org/2000/svg" xmlns:xlink="http://www.w3.org/1999/xlink" x="0px" y="0px"
	 viewBox="0 0 107.7 57.2" style="enable-background:new 0 0 107.7 57.2;" xml:space="preserve">
<style type="text/css">
	.st0{fill:#B9D3D9;}
	.st1{fill:#606468;stroke:#606468;stroke-width:0.25;stroke-miterlimit:10;}
	.st2{fill:#606468;}
</style>
<path class="st0" d="M80.5,57H27.2C12.2,56.9,0,44.3,0,28.6l0,0C0,13,12.2,0.3,27.2,0.3h53.3c15,0,27.1,12.7,27.2,28.3l0,0
	C107.7,44.3,95.5,56.9,80.5,57z"/>
<g>
	<g>
		<path class="st1" d="M34.2,33.6H16.7V19.1h17.6V33.6z M17.7,32.6h15.6V20.1H17.7V32.6z"/>
		<polygon class="st0" points="20.4,22.8 20.4,36.4 29.3,36.4 35.4,40.4 35.4,36.4 37,36.4 37,22.8 		"/>
		<path class="st1" d="M35.9,41.4l-6.7-4.5h-9.3V22.3h17.6v14.5h-1.6V41.4z M20.9,35.9h8.6l5.4,3.6v-3.6h1.6V23.3H20.9V35.9z"/>
	</g>
	<g>
		<path class="st2" d="M55.9,24.3l-1.1,1.2c-0.6-0.5-1.3-0.8-2-0.8c-1.5,0-2.7,1.1-2.7,4c0,2.9,1.1,4,2.7,4c0.9,0,1.6-0.4,2.2-0.9
			l1,1.2c-0.7,0.7-1.8,1.3-3.3,1.3c-2.8,0-4.8-2-4.8-5.7c0-3.6,2.1-5.6,4.7-5.6C54.2,23.1,55.1,23.6,55.9,24.3z"/>
		<path class="st2" d="M66,29.4h-3.9v4.9h-2.1V23.4h2.1v4.4H66v-4.4h2.1v10.9H66V29.4z"/>
		<path class="st2" d="M78.2,31.7h-3.6L74,34.2h-2.2l3.4-10.9h2.6l3.4,10.9h-2.2L78.2,31.7z M77.8,30.2L76.4,25l-1.4,5.2H77.8z"/>
		<path class="st2" d="M90.8,25H88v9.2h-2.1V25H83v-1.7h8.1L90.8,25z"/>
	</g>
</g>
</svg>
