<svg id="Layer_1" data-name="Layer 1" xmlns="http://www.w3.org/2000/svg" viewBox="0 0 103 52"><defs><style>.cls-1{fill:#B9D3D9;}.cls-2{fill:#fff;}</style></defs><title>kafnu-livechat</title><path class="cls-1" d="M101,74.8H50a26.08,26.08,0,0,1-26-26h0a26.08,26.08,0,0,1,26-26h51a26.08,26.08,0,0,1,26,26h0A26.08,26.08,0,0,1,101,74.8Z" transform="translate(-24 -22.8)"/><path class="cls-2" d="M76.67,46.51a2.31,2.31,0,0,0-1.9.86,4.49,4.49,0,0,0,0,4.75,2.35,2.35,0,0,0,1.92.81,5.06,5.06,0,0,0,1.05-.11q.51-.11,1.06-.28v1.2a6.43,6.43,0,0,1-2.29.38A3.65,3.65,0,0,1,73.61,53a4.77,4.77,0,0,1-1-3.26,5.27,5.27,0,0,1,.49-2.34,3.49,3.49,0,0,1,1.41-1.54,4.28,4.28,0,0,1,2.17-.53,5.39,5.39,0,0,1,2.43.55L78.61,47a7.52,7.52,0,0,0-.92-.36A3.31,3.31,0,0,0,76.67,46.51Z" transform="translate(-24 -22.8)"/><path class="cls-2" d="M88.35,54H86.94V50.14H83V54h-1.4V45.43H83v3.5h3.95v-3.5h1.41Z" transform="translate(-24 -22.8)"/><path class="cls-2" d="M96.88,54,96,51.62H92.75L91.91,54H90.43l3.2-8.6h1.52L98.37,54Zm-1.22-3.59-.8-2.33q-.09-.23-.24-.74t-.21-.74a13.14,13.14,0,0,1-.46,1.58l-.77,2.23Z" transform="translate(-24 -22.8)"/><path class="cls-2" d="M103.42,54H102V46.63H99.5v-1.2h6.44v1.2h-2.52Z" transform="translate(-24 -22.8)"/><path class="cls-2" d="M61,54H43.42V39.45H61ZM44.42,53H60V40.45H44.42Z" transform="translate(-24 -22.8)"/><polygon class="cls-1" points="23.15 20.39 23.15 33.92 32.07 33.92 38.15 38 38.15 33.92 39.76 33.92 39.76 20.39 23.15 20.39"/><path class="cls-2" d="M62.65,61.73l-6.73-4.51H46.65V42.68H64.26V57.22H62.65Zm-15-5.51h8.57l5.42,3.64V56.22h1.62V43.68H47.65Z" transform="translate(-24 -22.8)"/></svg>