<?xml version="1.0" encoding="utf-8"?>
<!-- Generator: Adobe Illustrator 21.0.0, SVG Export Plug-In . SVG Version: 6.00 Build 0)  -->
<svg version="1.1" id="Layer_1" xmlns="http://www.w3.org/2000/svg" xmlns:xlink="http://www.w3.org/1999/xlink" x="0px" y="0px"
	 viewBox="0 0 90.2 68.6" style="enable-background:new 0 0 90.2 68.6;" xml:space="preserve">
<style type="text/css">
	.st0{fill:#5E6366;}
</style>
<title>Asset 1</title>
<g id="Layer_2">
	<g id="Layer_1-2">
		<path class="st0" d="M88.9,31.2H39.7c-0.8,0.1-1.3,0.7-1.3,1.5v34.4c0,0.8,0.6,1.4,1.3,1.5h49.2c0.8-0.1,1.3-0.7,1.3-1.5V32.7
			C90.3,31.9,89.7,31.2,88.9,31.2z M87.8,32.8L64.3,56.4L40.8,32.8H87.8z M39.8,33.8l15.4,15.5L39.8,65.9L39.8,33.8z M40.8,67
			l15.4-16.6l7.6,7.6c0.2,0.3,0.6,0.3,0.9,0.1c0,0,0.1-0.1,0.1-0.1l7.6-7.7L87.8,67L40.8,67z M88.8,65.8L73.5,49.3l15.4-15.5
			L88.8,65.8z"/>
		<path class="st0" d="M38.3,49.9H1.7V16.7L6.1,20l0.1,0.1c0.1,0.1,0.3,0.2,0.4,0.3l0,0l22,16.2c0.3,0.2,0.7,0.2,1,0l22.1-16.2h0.1
			c0.1,0,0.2-0.1,0.3-0.3l0.1-0.1l4.4-3.3v14.4h1.7V14.3c0-0.3-0.1-0.5-0.3-0.7L53.1,10l-0.8-0.4V0.9C52.3,0.4,52,0,51.5,0H6.8
			C6.4,0,6,0.4,6,0.9v8.9H5.5l-5.2,3.8C0.1,13.7,0,14,0,14.3v36.5c0,0.5,0.4,0.9,0.9,0.9c0,0,0,0,0,0h37.5L38.3,49.9z M52.3,11.5
			l4.2,3.1l-4.2,3V11.5z M7.7,1.7h43V19L29.1,34.8L7.7,19V1.7z M6,11.6v6.2l-4.2-3L6,11.6z"/>
		<path class="st0" d="M42.5,8.9H15.8C15.3,9,14.9,9.4,15,9.9c0,0.4,0.4,0.7,0.8,0.8h26.8c0.5,0.1,0.9-0.3,0.9-0.8S43.2,9,42.7,8.9
			C42.7,8.9,42.6,8.9,42.5,8.9z"/>
		<path class="st0" d="M42.5,17.1H15.8c-0.5,0.1-0.8,0.5-0.8,0.9c0,0.4,0.4,0.7,0.8,0.8h26.8c0.5,0.1,0.9-0.3,0.9-0.8
			c0.1-0.5-0.3-0.9-0.8-0.9C42.7,17.1,42.6,17.1,42.5,17.1z"/>
		<path class="st0" d="M35.1,25.3H23.2c-0.5-0.1-0.9,0.3-0.9,0.8C22.2,26.6,22.5,27,23,27c0.1,0,0.1,0,0.2,0h11.9
			c0.5-0.1,0.8-0.5,0.8-0.9C35.8,25.7,35.5,25.4,35.1,25.3z"/>
	</g>
</g>
</svg>
