<svg width="50" height="50" xmlns="http://www.w3.org/2000/svg" viewBox="0 0 105 104"><defs><style>.a{fill:#bdb099;}.b{fill:#ebe8e0;}.c{fill:#b0b0b0;}.d{fill:#b8d1d9;}.e{fill:#d9d6cc;}.f{fill:#5e6366;}</style></defs><title>Map Pin</title><polygon class="a" points="95.35 83.74 95.35 94.34 73.51 94.34 50.87 62.13 59.57 55.19 95.35 83.74"/><polygon class="b" points="95.35 26.64 95.35 77.35 63.58 51.99 95.35 26.64"/><polygon class="c" points="95.35 9.64 95.35 20.24 59.57 48.79 50.87 41.86 73.51 9.64 95.35 9.64"/><polygon class="d" points="10.65 56.34 37.35 94.34 10.65 94.34 10.65 56.34"/><polygon class="e" points="37.35 9.64 10.65 47.64 10.65 9.64 37.35 9.64"/><path class="f" d="M100.35,82.56V96.84a2.5,2.5,0,0,1-2.5,2.5H72.21a2.49,2.49,0,0,1-2-1.06L45.43,63.08a2.5,2.5,0,0,1,.48-3.39L55.56,52,45.91,44.3a2.5,2.5,0,0,1-.48-3.39L70.16,5.71a2.5,2.5,0,0,1,2-1.07H97.85a2.5,2.5,0,0,1,2.5,2.5V82.56Zm-5,11.78V83.74L59.57,55.19l-8.7,6.94L73.51,94.34Zm0-17V26.64L63.58,52Zm0-57.11V9.64H73.51L50.87,41.86l8.7,6.93Z"/><path class="f" d="M42.16,4.64a2.5,2.5,0,0,1,2.05,3.94L13.7,52,44.21,95.41a2.5,2.5,0,0,1-2.05,3.93h-34a2.5,2.5,0,0,1-2.5-2.5V7.14a2.5,2.5,0,0,1,2.5-2.5Zm-31.51,43,26.7-38H10.65Zm26.7,46.7-26.7-38v38Z"/></svg>