<svg xmlns="http://www.w3.org/2000/svg" viewBox="0 0 72 68.5"><defs><style>.cls-1{fill:#606468;}</style></defs><title>Asset 1</title><g id="Layer_2" data-name="Layer 2"><g id="Layer_1-2" data-name="Layer 1"><path class="cls-1" d="M72,5a5,5,0,0,0-5-5H25a5,5,0,0,0-5,5V51.2a11.12,11.12,0,0,0-9-4.7A11,11,0,1,0,22,58h0V22H70V40.2a11.12,11.12,0,0,0-9-4.7,11,11,0,1,0,11,11V46h0ZM11,66.4a9,9,0,1,1,9-9A9,9,0,0,1,11,66.4Zm50-11a9,9,0,1,1,9-9A9,9,0,0,1,61,55.4ZM22,20V5a3,3,0,0,1,3-3H67a3,3,0,0,1,3,3V20Z"/></g></g></svg>