<?xml version="1.0" encoding="utf-8"?>
<!-- Generator: Adobe Illustrator 21.0.0, SVG Export Plug-In . SVG Version: 6.00 Build 0)  -->
<svg version="1.1" id="Layer_1" xmlns="http://www.w3.org/2000/svg" xmlns:xlink="http://www.w3.org/1999/xlink" x="0px" y="0px"
	 viewBox="0 0 60.7 76.4" style="enable-background:new 0 0 60.7 76.4;" xml:space="preserve">
<style type="text/css">
	.st0{fill:#5E6366;}
</style>
<title>Asset 1</title>
<g id="Layer_2">
	<g id="Layer_1-2">
		<path class="st0" d="M55,0H1.4C0.6,0,0,0.6,0,1.4V6c0,0.7,0.6,1.4,1.3,1.4c0,0,0,0,0,0h2V69H1.5C0.7,69,0,69.7,0,70.5c0,0,0,0,0,0
			v4.3c0,0.8,0.7,1.5,1.5,1.5h57.6c0.8,0,1.5-0.7,1.5-1.5v-4.3c0-0.8-0.6-1.5-1.5-1.6c0,0,0,0,0,0h-1.8V7.4h2c0.7,0,1.4-0.6,1.4-1.3
			c0,0,0,0,0,0V1.4c0-0.7-0.6-1.3-1.3-1.4H55z M1.7,1.7H59v3.9H1.7V1.7z M59,74.7H1.7v-3.9H59V74.7z M50.8,39.4H31.2V26.3h19.6V39.4
			z M50.8,41.1v13.1H31.2V41.1H50.8z M50.8,55.9V69H31.2V55.9H50.8z M50.8,24.6H31.2V11.5h19.6V24.6z M29.5,24.6H9.9V11.5h19.6
			C29.5,11.5,29.5,24.6,29.5,24.6z M9.9,26.3h19.6v13.1H9.9V26.3z M9.9,41.1h19.6v13.1H9.9V41.1z M9.9,55.9h19.6V69H9.9V55.9z
			 M55.6,69h-3V11.4c0-0.9-0.7-1.6-1.6-1.6H9.7c-0.9,0-1.6,0.7-1.6,1.6V69h-3V7.4h50.5V69z"/>
	</g>
</g>
</svg>
