<?xml version="1.0" encoding="utf-8"?>
<!-- Generator: Adobe Illustrator 21.0.0, SVG Export Plug-In . SVG Version: 6.00 Build 0)  -->
<svg version="1.1" id="Layer_1" xmlns="http://www.w3.org/2000/svg" xmlns:xlink="http://www.w3.org/1999/xlink" x="0px" y="0px"
	 viewBox="0 0 67.4 63.2" style="enable-background:new 0 0 67.4 63.2;" xml:space="preserve">
<style type="text/css">
	.st0{fill:#5E6366;}
</style>
<title>Asset 1</title>
<g id="Layer_2">
	<g id="Layer_1-2">
		<path class="st0" d="M50.4,0H17v17.6H0V55h17v8.2h33.4V55h17V17.6h-17V0z M18.4,1.4H49v16.1H18.4V1.4z M49,61.8H18.4V42H49V61.8z
			 M66,19v34.6H50.4v-13H17v13H1.4V19H66z"/>
		<rect x="24" y="47.2" class="st0" width="19.4" height="1.4"/>
		<rect x="7.7" y="24.3" class="st0" width="4" height="2"/>
		<rect x="8" y="24.6" class="st0" width="3.4" height="1.4"/>
		<rect x="13.7" y="24.3" class="st0" width="5" height="2"/>
		<rect x="14" y="24.6" class="st0" width="4.4" height="1.4"/>
		<rect x="24" y="55.2" class="st0" width="19.4" height="1.4"/>
	</g>
</g>
</svg>
