<svg xmlns="http://www.w3.org/2000/svg" viewBox="0 0 45.8 54.4"><defs><style>.cls-1{fill:#5e6366;}</style></defs><title>Asset 1</title><g id="Layer_2" data-name="Layer 2"><g id="Layer_1-2" data-name="Layer 1"><path class="cls-1" d="M7.1,29.7v4a.94.94,0,0,1-1,1,.94.94,0,0,1-1-1v-4a.94.94,0,0,1,1-1A.94.94,0,0,1,7.1,29.7Zm-1,7.2a.94.94,0,0,0-1,1v3.38a.94.94,0,0,0,1,1,.94.94,0,0,0,1-1V37.9A1,1,0,0,0,6.1,36.9Zm0,7.68a.94.94,0,0,0-1,1v4a.94.94,0,0,0,1,1,.94.94,0,0,0,1-1v-4A.94.94,0,0,0,6.1,44.58ZM15.5,29.7a1,1,0,1,0-2,0v2a1,1,0,0,0,1,1,1,1,0,0,0,1-1h0Zm-1,9.68a1.08,1.08,0,0,0-1,1v4.1a1.08,1.08,0,0,0,1,1,1,1,0,0,0,1-1v-4.1A1,1,0,0,0,14.5,39.38Zm0-5.68a1.08,1.08,0,0,0-1,1v2.68a1.08,1.08,0,0,0,1,1,1,1,0,0,0,1-1V34.7A1,1,0,0,0,14.5,33.7Zm0,12.88a.94.94,0,0,0-1,1v2a1,1,0,0,0,2,0v-2A.94.94,0,0,0,14.5,46.58ZM22.9,28.7a.94.94,0,0,0-1,1v4a1,1,0,0,0,2,0v-4A.94.94,0,0,0,22.9,28.7Zm0,8.2a.94.94,0,0,0-1,1v3.38a1,1,0,0,0,2,0V37.9A1,1,0,0,0,22.9,36.9Zm0,7.68a.94.94,0,0,0-1,1v4a1,1,0,0,0,2,0v-4A.94.94,0,0,0,22.9,44.58ZM45.8,11.7V53.4a1,1,0,0,1-2,0V11.7A9.71,9.71,0,0,0,34.1,2H25.3a9.84,9.84,0,0,0-9.7,8.8A13.86,13.86,0,0,1,28.4,23.7a1,1,0,0,1,.7.9.94.94,0,0,1-1,1H1a.94.94,0,0,1-1-1,1,1,0,0,1,.7-.9A14,14,0,0,1,13.6,10.8,11.76,11.76,0,0,1,25.3,0h8.8A11.78,11.78,0,0,1,45.8,11.7Zm-31.3,1A11.87,11.87,0,0,0,2.7,23.6H26.4A11.89,11.89,0,0,0,14.5,12.7Z"/></g></g></svg>