<svg xmlns="http://www.w3.org/2000/svg" viewBox="0 0 70.8 63.2"><defs><style>.cls-1{fill:#5e6366;}</style></defs><title>Asset 1</title><g id="Layer_2" data-name="Layer 2"><g id="Layer_1-2" data-name="Layer 1"><path class="cls-1" d="M70.7,39.6h0L62.8,20.8V17a17,17,0,0,0-17-17H25A17,17,0,0,0,8,17v3.8L.1,39.6h0A.6.6,0,0,0,0,40V62.2a.94.94,0,0,0,1,1,.94.94,0,0,0,1-1V55H68.8v7.2a1,1,0,0,0,2,0V54.7a.6.6,0,0,0-.1-.4c0-.1.1-.2.1-.4v-14A.37.37,0,0,0,70.7,39.6ZM9.3,23h9.8v.3a5,5,0,0,0,5,5H46.7a5,5,0,0,0,5-5V23h9.8l6.7,16H2.5Zm37.4-9.4a3,3,0,0,1,3,3v6.7a3,3,0,0,1-3,3H36.4V13.6ZM34.4,26.3H24.1a3,3,0,0,1-3-3V16.6a3,3,0,0,1,3-3H34.4ZM25,2H45.8a15,15,0,0,1,15,15v4H51.7V16.6a5,5,0,0,0-5-5H24.1a5,5,0,0,0-5,5v4.3H10v-4A15,15,0,0,1,25,2ZM2,41H68.8V53H2Z"/></g></g></svg>