<?xml version="1.0" encoding="utf-8"?>
<!-- Generator: Adobe Illustrator 21.0.0, SVG Export Plug-In . SVG Version: 6.00 Build 0)  -->
<svg version="1.1" id="Layer_1" xmlns="http://www.w3.org/2000/svg" xmlns:xlink="http://www.w3.org/1999/xlink" x="0px" y="0px"
	 viewBox="0 0 81.8 56.3" style="enable-background:new 0 0 81.8 56.3;" xml:space="preserve">
<style type="text/css">
	.st0{fill:#606468;}
</style>
<title>Asset 1</title>
<g id="Layer_2">
	<g id="Layer_1-2">
		<path class="st0" d="M81.8,47.8c0-0.2,0-0.5-0.2-0.7c-0.4-0.5-0.9-0.9-1.4-1.3c-1.8-1.4-3.5-2.5-5.2-3.5c-2.3-1.4-4.8-2.6-7.3-3.5
			c-0.1,0-0.2,0-0.3,0c-0.4,0-0.8,0.3-0.8,0.7c0,0.3,0.2,0.6,0.5,0.8c2.4,0.9,4.8,2.1,7,3.4c1.6,1,3.2,2,5,3.4l0.4,0.3L73,50.8
			l0-0.1c-3.4-2.4-7.3-4.2-11.4-5.2c-1.5-0.3-3-0.5-4.5-0.5c-3.2,0-6.3,0.7-9.2,1.9c-2.2,0.8-4.3,1.8-6.3,2.8
			c-1.2,0.6-2.4,1.1-3.6,1.7c-4.9,2.2-10.2,3.4-15.6,3.5c-7.1-0.1-14-2.2-19.9-6.1l-0.3-0.2l6.1-4.9c0.3-0.3,0.4-0.8,0.1-1.1
			c-0.3-0.3-0.8-0.4-1.1-0.1l0,0L0.3,48c-0.3,0.3-0.4,0.8-0.1,1.1c0,0.1,0.1,0.1,0.2,0.2c6.4,4.5,14,7,21.9,7.1l0,0
			c5.6-0.1,11.1-1.3,16.2-3.6c1.2-0.6,2.5-1.1,3.7-1.7c2-1,4.1-1.9,6.2-2.8c2.8-1.1,5.7-1.7,8.7-1.8c1.4,0,2.8,0.2,4.2,0.5
			c4.1,1.1,7.9,2.9,11.3,5.3c0.1,0.1,0.3,0.1,0.4,0.1c0.1,0,0.2,0,0.3-0.1l8-4C81.6,48.2,81.7,48,81.8,47.8z"/>
		<path class="st0" d="M60.3,10.6c-0.1,5.8,4.6,10.6,10.5,10.7c0,0,0,0,0,0h0.1c5.8-0.1,10.4-4.8,10.6-10.5c0.1-2.8-1-5.5-3-7.6
			c-2-2-4.8-3.2-7.7-3.2C65,0,60.3,4.6,60.3,10.4C60.3,10.5,60.3,10.5,60.3,10.6z M70.8,1.6L70.8,1.6c2.4,0,4.8,1,6.5,2.7
			C79,6,80,8.3,80,10.7c-0.1,4.9-4.1,8.9-9,9h-0.1c-5,0-9-4-9-9c0,0,0-0.1,0-0.1C61.8,5.6,65.8,1.6,70.8,1.6
			C70.7,1.6,70.8,1.5,70.8,1.6L70.8,1.6z"/>
		<path class="st0" d="M11.5,40.1c2.6,2.2,7.6,3.6,10.9,3.7h0.6c6.3,0,11.8-2.7,16.7-5C42,37.6,50.2,34,58.3,34
			c3.3-0.1,6.5,0.7,9.4,2.2c0.1,0.1,0.2,0.1,0.4,0.1c0.4,0,0.8-0.3,0.8-0.8c0-0.1,0-0.2,0-0.2c-1.7-6.2-4.3-12.1-7.8-17.4
			C56.1,10.7,49,5.3,40.7,2.5c-4.3-1.3-8.8-2-13.3-1.9C23,0.6,18.6,1,14.3,2c-0.4,0.1-0.6,0.4-0.6,0.8L14,6.8c0,0.2,0.1,0.4,0.3,0.5
			c0.2,0.1,0.4,0.2,0.6,0.2l0,0c2-0.2,4.1-0.3,6.2-0.3c3.1-0.1,6.3,0.3,9.3,1.2c6.9,2.2,9.5,5.3,10.3,6.6l0.1,0.2L11.5,38.9
			c-0.3,0.3-0.4,0.8-0.1,1.1C11.4,40,11.5,40,11.5,40.1L11.5,40.1z M42.1,16c0.2-0.2,0.3-0.5,0.2-0.9C42.3,14.9,40.5,10,30.7,7
			c-3.2-0.9-6.4-1.3-9.7-1.3c-1.7,0-3.4,0.1-5.2,0.2h-0.2l-0.2-2.6h0.2c4-0.8,8-1.2,12-1.2c4.3-0.1,8.6,0.5,12.7,1.8
			c7.9,2.7,14.7,7.9,19.4,14.8c3,4.6,5.4,9.6,7.1,14.9l0.1,0.5l-0.4-0.2c-2.6-1-5.3-1.4-8.1-1.4c-8.5,0-16.9,3.7-19.3,4.9
			c-4.7,2.3-10,4.8-15.9,4.8h-0.6c-3.2-0.2-6.2-1-9-2.6l-0.3-0.2L42.1,16z"/>
	</g>
</g>
</svg>
