<?xml version="1.0" encoding="utf-8"?>
<!-- Generator: Adobe Illustrator 21.0.0, SVG Export Plug-In . SVG Version: 6.00 Build 0)  -->
<svg version="1.1" id="Layer_1" xmlns="http://www.w3.org/2000/svg" xmlns:xlink="http://www.w3.org/1999/xlink" x="0px" y="0px"
	 viewBox="0 0 60.1 60.1" style="enable-background:new 0 0 60.1 60.1;" xml:space="preserve">
<style type="text/css">
	.st0{fill:#606468;}
</style>
<title>Asset 1</title>
<g id="Layer_2">
	<g id="Layer_1-2">
		<path class="st0" d="M54.2,5.8C50.3,2,45-0.1,39.6,0c-6.9,0.1-13.4,2.9-18.3,7.8c-2.9,2.8-5.3,6.1-7.1,9.7L14,18l28,28.1l0.5-0.2
			c2.1-1,4.2-2.3,6-3.8l-1-1.2c-1.6,1.3-3.3,2.4-5.1,3.3l-0.2,0.1L15.8,17.7l0.1-0.1c1.7-3.2,3.9-6.1,6.5-8.6
			c4.5-4.6,10.7-7.3,17.2-7.4c5.1-0.1,9.9,1.9,13.5,5.4c5.8,5.8,7,14.8,3.3,23.1l1.4,0.6C61.8,21.8,60.4,12.1,54.2,5.8z"/>
		<path class="st0" d="M43.5,45.4L14.7,16.5l-0.5,1c-3.8,8.1-2,16.1,5.1,23.2c4.7,4.7,9.7,7.1,15,7.1c2.9,0,5.7-0.7,8.3-2L43.5,45.4
			z M40.5,45.1c-2,0.8-4.1,1.2-6.3,1.2c-4.8,0-9.5-2.2-13.9-6.6c-6.3-6.3-8.1-13-5.4-20.1l0.1-0.3l25.7,25.7L40.5,45.1z"/>
		<path class="st0" d="M24,43.2l-7.2-7.2L0,52.9l7.2,7.2L24,43.2z M16.8,38.2l5,5L7.2,57.9l-5-5L16.8,38.2z"/>
		<path class="st0" d="M60,34.9c0-4.6-3.7-8.3-8.3-8.3s-8.3,3.7-8.3,8.3s3.7,8.3,8.3,8.3l0,0C56.3,43.3,60,39.5,60,34.9z M51.7,41.7
			c-3.7,0-6.8-3-6.8-6.8s3-6.8,6.8-6.8c3.7,0,6.8,3,6.8,6.8v0C58.4,38.7,55.4,41.7,51.7,41.7L51.7,41.7z"/>
	</g>
</g>
</svg>
