<svg xmlns="http://www.w3.org/2000/svg" viewBox="0 0 100 101.05"><defs><style>.a{fill:#606468;}.b,.c,.d{fill:none;stroke:#606468;stroke-linecap:round;stroke-miterlimit:10;}.b{stroke-width:1.06px;}.c{stroke-width:1.06px;}.d{stroke-width:1.28px;}</style></defs><title>tp-learn</title><path class="a" d="M24.26,61.53V50.85c0-6.35,4-7.72,5.48-8a4.23,4.23,0,1,0,2.38-5.48,4.12,4.12,0,0,0-2.67,4v.14c-1.8.36-6.64,2.16-6.64,9.38V61.53H19a.68.68,0,0,0-.72.72v8.66a.68.68,0,0,0,.72.72h3.82V83.17a.72.72,0,0,0,1.44,0V71.63h51.8V83.17a.72.72,0,0,0,1.44,0V71.63H81a.68.68,0,0,0,.72-.72V62.25a.68.68,0,0,0-.72-.72H24.26Zm9.45-23a2.81,2.81,0,1,1-2.81,2.81h0A2.77,2.77,0,0,1,33.71,38.52Zm46.6,31.67H19.72V63h60.6Z"/><path class="a" d="M62.71,45c5.6-1.91,9.45-7.59,9.45-14.68,0-8.95-6.13-16.22-13.67-16.22S44.81,21.38,44.81,30.32c0,7.09,3.85,12.77,9.45,14.68-4.2,1.25-11.44,5.55-11.44,11V62.1H44.1V56c0-3,2.73-5.69,5.7-7.57l8.69,12.75,8.69-12.75c3,1.88,5.7,4.61,5.7,7.57V62.1h1.28V56C74.15,50.55,66.91,46.25,62.71,45ZM58.49,15.38c5,0,9.36,3.63,11.31,8.83-5.56,4.4-12.74.73-16.29-2.92a.64.64,0,0,0-.57-.18A11.17,11.17,0,0,0,47,24.65C48.88,19.21,53.32,15.38,58.49,15.38ZM46.09,30.32a18,18,0,0,1,.2-2.68c.24-.38,2.82-4.35,6.54-5.22,3.88,3.83,11.35,7.47,17.38,3.07a17.68,17.68,0,0,1,.67,4.84c0,8-5.33,14.09-12.4,14.09S46.09,38.36,46.09,30.32ZM57.46,45.91h2.06m1.33,0a14.2,14.2,0,0,1,5.23,1.91L62.82,52.6,61.89,54l-3.4,5-3.4-5-.93-1.36-3.26-4.78a14.2,14.2,0,0,1,5.23-1.91Z"/><ellipse class="a" cx="51.46" cy="30.49" rx="1.18" ry="1.5"/><ellipse class="a" cx="65.51" cy="30.49" rx="1.18" ry="1.5"/><path class="a" d="M58.49,36c.35,0,.64-.14.64-.32V33.85c0-.18-.29-.32-.64-.32s-.64.14-.64.32v1.83C57.85,35.85,58.13,36,58.49,36Z"/><path class="b" d="M53.44,38.36a7.26,7.26,0,0,0,4.91,2,7.87,7.87,0,0,0,5.19-2"/><path class="c" d="M58.56,45s-6.19,1.7-4.6,3.86c1.28,1.73,4.87-3.55,4.87-3.55l1,.26S65,47.45,64.43,48.8s-4.34-.65-5.52-3.18c0,0-3,5.23-2.67,8.12"/><path class="c" d="M61.1,53.39S60,50.14,58.42,46.11"/><path class="d" d="M70.81,25.49s5.07,12,3.35,16.5-6.23,3.6-13.31,3"/><path class="d" d="M46.19,25.49s-5.07,12-3.35,16.5,6.23,3.6,13.31,3"/></svg>