<svg xmlns="http://www.w3.org/2000/svg" viewBox="0 0 100 101.05"><defs><style>.a{fill:none;stroke:#606468;stroke-linecap:round;stroke-miterlimit:10;stroke-width:1.8px;}.b{font-size:7px;fill:#fff;font-family:MyriadPro-Bold, Myriad Pro;}.c{font-weight:700;letter-spacing:0.1em;}.d{font-family:MyriadPro-Regular, Myriad Pro;}.e{letter-spacing:-0.01em;}.f{letter-spacing:0.02em;}.g{letter-spacing:-0.01em;}.h{letter-spacing:-0.01em;}</style></defs><title>tp-live</title><path class="a" d="M74.87,47.7v20A11.29,11.29,0,0,1,63.58,79H36.42A11.29,11.29,0,0,1,25.12,67.71v-20Z"/><line class="a" x1="16.64" y1="54.86" x2="25.12" y2="54.86"/><line class="a" x1="74.87" y1="54.86" x2="83.36" y2="54.86"/><line class="a" x1="50" y1="40.51" x2="50" y2="18"/><line class="a" x1="58.17" y1="32.32" x2="58.17" y2="26.22"/><line class="a" x1="41.83" y1="34.14" x2="41.83" y2="23.72"/><path class="a" d="M70.7,57.9v8.15c0,4.66-4.09,8.44-9.12,8.44H58.15"/><text class="b" transform="translate(0 -28.45)"><tspan class="c">LIVE</tspan><tspan class="d"><tspan class="e" x="0" y="11.4">C</tspan><tspan x="3.98" y="11.4">osy </tspan><tspan class="f" x="15.38" y="11.4">k</tspan><tspan x="18.78" y="11.4">i</tspan><tspan class="g" x="20.42" y="11.4">t</tspan><tspan x="22.69" y="11.4">chen a</tspan><tspan class="h" x="41.96" y="11.4">r</tspan><tspan x="44.18" y="11.4">eas</tspan></tspan></text></svg>