<svg xmlns="http://www.w3.org/2000/svg" viewBox="0 0 100 101.05"><defs><style>.a{fill:none;stroke-miterlimit:10;}.a,.b{stroke:#606468;stroke-width:1.5px;}.b{fill:#fff;stroke-linecap:round;stroke-linejoin:round;}.c{fill:#606468;}</style></defs><title>tp-learn</title><ellipse class="a" cx="48.28" cy="33.75" rx="14.7" ry="16.02"/><path class="a" d="M26.8,79.77v-8.5A21.47,21.47,0,0,1,48.28,49.8h0A21.47,21.47,0,0,1,69.75,71.27v8.5"/><path class="a" d="M33.7,31.73s4.63-3.93,8-3.93c0,0,8.92,9.38,21.2,3.93"/><polyline class="a" points="48.28 49.8 45.3 55.93 38.31 52.26"/><circle class="b" cx="68.93" cy="72.83" r="10.5"/><polyline class="a" points="48.28 49.8 51.26 55.93 58.25 52.26"/><polyline class="a" points="46.1 54.27 48.28 57.34 50.45 54.27"/><polyline class="a" points="36.46 52.54 48.28 72.12 60.1 52.54"/><polyline class="a" points="45.04 66.76 48.28 58.28 51.52 66.76"/><path class="c" d="M73.12,75.15c0-1.63-1.05-2.57-3.51-3.12l-.11,0V67.6l.16,0a5.17,5.17,0,0,1,2.27,1,.43.43,0,0,0,.29.09.47.47,0,0,0,.5-.47.53.53,0,0,0-.28-.44,5.74,5.74,0,0,0-2.77-1h-.12v-.68a.4.4,0,0,0-.8,0v.65h-.13c-2,.1-3.39,1.32-3.39,3s1,2.55,3.46,3.14l.11,0v4.47l-.15,0a5.54,5.54,0,0,1-3-1.4.48.48,0,0,0-.78.36.49.49,0,0,0,.23.43,6.56,6.56,0,0,0,3.57,1.46h.12v1.35a.4.4,0,0,0,.8,0V78.19h.13C71.73,78,73.12,76.83,73.12,75.15ZM68.8,71.84l-.17,0c-1.74-.46-2.38-1.06-2.38-2.2s1-2,2.41-2h.14Zm.84,5.51H69.5V73l.17,0c1.77.46,2.43,1.05,2.43,2.19S71.13,77.26,69.64,77.35Z"/></svg>