<svg xmlns="http://www.w3.org/2000/svg" viewBox="0 0 100 101.05"><defs><style>.a{fill:#606468;}.b{font-size:7px;fill:#fff;font-family:MyriadPro-Bold, Myriad Pro;}.c{font-weight:700;letter-spacing:0.1em;}.d{font-family:MyriadPro-Regular, Myriad Pro;}.e{letter-spacing:-0.01em;}.f{letter-spacing:-0.01em;}.g{letter-spacing:-0.01em;}</style></defs><title>tp-live</title><path class="a" d="M74.51,79.89a1,1,0,0,0-1-1H22.93a1,1,0,1,0,0,2H73.51A1,1,0,0,0,74.51,79.89Z"/><path class="a" d="M84.71,51.72c.86-2.07.41-6.59-1.21-8.2-2.09-2.34-5.74-2.69-7.73-2.69-.39,0-.75,0-1.06,0h-.21V35H22.11v9.37c0,3.76,0,10.77,8.62,20.61,1.88,2.15,3.06,7.28,3.35,9.07l.14.84H62.4l.14-.84c.27-1.66,1.36-6.47,3.12-8.78l.1-.13.14.07a2.34,2.34,0,0,0,.53.11C67,65.29,81.06,63.9,84.71,51.72Zm-20.33,12c-2.08,2.37-3.23,7.13-3.63,9.07l0,.16H35.9l0-.16c-.39-1.93-1.54-6.68-3.63-9.07-8.12-9.28-8.12-15.8-8.12-19.3V37H72.51v7.37C72.51,47.89,72.51,54.4,64.39,63.68Zm3.5-.61-.51.1.31-.41c6.82-9.08,6.82-14.9,6.82-18.38V42.88h.18c.31,0,.67,0,1.08,0,1.83,0,4.33.35,5.81,2,1.08,1.07,1.84,4.07,1.21,6.32C80.94,57.31,75.79,61.43,67.88,63.07Z"/><path class="a" d="M36.26,20.67a1,1,0,0,0-1,1V30a1,1,0,1,0,2,0V21.67A1,1,0,0,0,36.26,20.67Z"/><path class="a" d="M47,15.89a1,1,0,0,0-1,1V30a1,1,0,0,0,2,0V16.89A1,1,0,0,0,47,15.89Z"/><path class="a" d="M57.78,24.26a1,1,0,0,0-1,1V30a1,1,0,0,0,2,0V25.26A1,1,0,0,0,57.78,24.26Z"/><text class="b" transform="translate(0 -28.45)"><tspan class="c">LIVE</tspan><tspan class="d"><tspan x="0" y="11.4">Nesp</tspan><tspan class="e" x="14.87" y="11.4">r</tspan><tspan x="17.09" y="11.4">esso </tspan><tspan class="f" x="31.46" y="11.4">c</tspan><tspan x="34.56" y="11.4">o</tspan><tspan class="g" x="38.4" y="11.4">ff</tspan><tspan x="42.39" y="11.4">ee</tspan></tspan></text></svg>