<svg xmlns="http://www.w3.org/2000/svg" viewBox="0 0 100 101.05"><defs><style>.a{fill:none;stroke:#606468;stroke-linecap:round;stroke-linejoin:round;stroke-width:2px;}.b{fill:#606468;}</style></defs><title>tp-live</title><circle class="a" cx="50" cy="50.53" r="30.59"/><path class="b" d="M62.13,57.44c0-4.78-3.07-7.51-10.28-9.12l-.31-.07V35.34l.46.07a15.18,15.18,0,0,1,6.65,2.92,1.25,1.25,0,0,0,.84.26A1.39,1.39,0,0,0,61,37.23a1.56,1.56,0,0,0-.81-1.29A16.79,16.79,0,0,0,52,32.87l-.36,0v-2a1.17,1.17,0,1,0-2.34,0v1.9l-.38,0c-5.84.29-9.92,3.85-9.92,8.67S42,48.92,49.18,50.63l.31.07V63.78L49,63.72a16.23,16.23,0,0,1-8.88-4.11,1.43,1.43,0,0,0-.88-.3,1.41,1.41,0,0,0-1.42,1.37,1.45,1.45,0,0,0,.68,1.26A19.18,19.18,0,0,0,49,66.22l.37,0v3.95a1.17,1.17,0,1,0,2.34,0V66.34l.37,0C58.08,65.93,62.13,62.36,62.13,57.44ZM49.49,47.76l-.5-.13c-5.08-1.35-7-3.09-7-6.42s2.83-5.74,7.05-5.94l.42,0ZM52,63.87l-.42,0V51.14l.5.13c5.19,1.33,7.12,3.07,7.12,6.42C59.16,61.19,56.33,63.62,52,63.87Z"/></svg>