<svg xmlns="http://www.w3.org/2000/svg" viewBox="0 0 100 101.05"><defs><style>.a{fill:none;stroke-linecap:round;stroke-linejoin:round;stroke-width:2px;}.a,.b{stroke:#606469;}.b{fill:#606468;stroke-miterlimit:10;stroke-width:0.5px;}.c{font-size:7px;fill:#fff;font-family:MyriadPro-Bold, Myriad Pro;}.d{font-weight:700;letter-spacing:0.1em;}.e{font-family:MyriadPro-Regular, Myriad Pro;}.f{letter-spacing:-0.01em;}.g{letter-spacing:-0.01em;}.h{letter-spacing:-0.01em;}</style></defs><title>tp-live</title><path class="a" d="M50,49c4.17-9.31,12.5-9.31,16.66-5.49s4.17,11.47,0,19.12C63.75,68.41,56.25,74.14,50,78c-6.25-3.82-13.75-9.56-16.66-15.29-4.17-7.65-4.17-15.29,0-19.12S45.83,39.73,50,49Z"/><path class="b" d="M67.59,34.73A.77.77,0,0,1,67,33.43l8.12-8.12a.77.77,0,0,1,1.08,1.08l-8.12,8.12A.76.76,0,0,1,67.59,34.73Z"/><path class="b" d="M32.41,35.28a.76.76,0,0,1-.54-.22l-8.12-8.12a.77.77,0,0,1,1.08-1.08L33,34a.77.77,0,0,1-.54,1.31Z"/><path class="b" d="M50,32.13a.77.77,0,0,1-.77-.77V19.89a.77.77,0,0,1,1.53,0V31.37A.77.77,0,0,1,50,32.13Z"/><text class="c" transform="translate(0 -28.45)"><tspan class="d">LIVE</tspan><tspan class="e"><tspan class="f" x="0" y="11.4">C</tspan><tspan x="3.98" y="11.4">o-living sha</tspan><tspan class="g" x="36.77" y="11.4">r</tspan><tspan x="38.99" y="11.4">ed spa</tspan><tspan class="h" x="58.06" y="11.4">c</tspan><tspan x="61.15" y="11.4">e</tspan></tspan></text></svg>