<svg xmlns="http://www.w3.org/2000/svg" viewBox="0 0 100 101.05"><defs><style>.a{fill:#606468;}</style></defs><title>tp-live</title><path class="a" d="M79.41,33.37H78.26V31.74a3.09,3.09,0,0,0-3.09-3.09H70.59a3.09,3.09,0,0,0-3.09,3.09v6.54H64.23l-.34-.86a7.66,7.66,0,0,0-7.24-4.86h-.24l-.08-.23a3.06,3.06,0,0,0-5-1.26l-.23.21-.23-.21a3,3,0,0,0-4.12,0l-.23.21-.23-.21a3,3,0,0,0-4.12,0l-.23.21-.23-.21a3.07,3.07,0,0,0-5.15,2.28v4.92H32.5V31.74a3.09,3.09,0,0,0-3.09-3.09H24.83a3.09,3.09,0,0,0-3.09,3.09v1.63H20.59a3.09,3.09,0,0,0-3.09,3.09V49.37a3.09,3.09,0,0,0,3.09,3.09h1.15v1.63a3.09,3.09,0,0,0,3.09,3.09h4.58a3.09,3.09,0,0,0,3.09-3.09V49h3.19l1,3.06a.82.82,0,0,0,.13.25l3.14,4.06-2,17.73A2.58,2.58,0,0,0,40.52,77H56a2.59,2.59,0,0,0,2.58-2.85l-2-17a1,1,0,0,1,.34-.85l6.28-5.38a3.74,3.74,0,0,0,1.07-1.6l.08-.23H67.5v5.06a3.09,3.09,0,0,0,3.09,3.09h4.58a3.09,3.09,0,0,0,3.09-3.09V52.46h1.15a3.09,3.09,0,0,0,3.09-3.09V36.46A3.09,3.09,0,0,0,79.41,33.37ZM21.74,50.86H20.59a1.49,1.49,0,0,1-1.49-1.49V36.46A1.49,1.49,0,0,1,20.59,35h1.15Zm9.15,3.23a1.49,1.49,0,0,1-1.49,1.49H24.83a1.49,1.49,0,0,1-1.49-1.49V31.74a1.49,1.49,0,0,1,1.49-1.49h4.58a1.49,1.49,0,0,1,1.49,1.49ZM51.95,33.36a1.49,1.49,0,1,1,3,0V40.1a1.67,1.67,0,0,1-.68,1.35l-.11.07a1.2,1.2,0,0,1-.26.11,1.6,1.6,0,0,1-.41.06l-.27,0L53,41.62a1.71,1.71,0,0,1-.38-.2l-.12-.08,0,0a1.6,1.6,0,0,1-.27-.35l-.07-.1,0,0a1.48,1.48,0,0,1-.13-.6Zm-4.58,0a1.49,1.49,0,1,1,3,0v6.86a1.49,1.49,0,0,1-3,0Zm-4.58,0a1.49,1.49,0,1,1,3,0v6.86a1.49,1.49,0,0,1-3,0Zm-4.58,0a1.49,1.49,0,1,1,3,0v6.86a1.49,1.49,0,0,1-.13.6A.83.83,0,0,1,41,41a1.48,1.48,0,0,1-.26.33l-.19.13a1.54,1.54,0,0,1-.34.18l-.25.05-.26,0h-.1a1.33,1.33,0,0,1-.31-.06,1.13,1.13,0,0,1-.24-.1l-.15-.1a1.66,1.66,0,0,1-.66-1.33ZM32.5,47.43V39.88h4.12v.34a3.06,3.06,0,0,0,1.53,2.65l.19.1.26.12.42.13.11,0,.13,0h.13l.14,0h.25l.28,0,.37-.06.26-.08L41,43l.24-.13.39-.26.1-.08.23-.21.23.21.1.08.29.21L43,43l.12.06a3.06,3.06,0,0,0,.37.11l.19.06a3.16,3.16,0,0,0,.6.06,3,3,0,0,0,.69-.09l.15,0a2.78,2.78,0,0,0,.32-.1l.13-.07.11-.06.27-.14.15-.11.12-.09.11-.08.23-.2.23.2.25.19.14.1.38.2.13.07a3,3,0,0,0,.37.11l.19.06a3.16,3.16,0,0,0,.6.06,3,3,0,0,0,.69-.09l.11,0a2.77,2.77,0,0,0,.36-.11l.21-.1.3-.16.39-.29.28-.13.23.18.15.1.3.2.24.13.36.14.23.07a3.77,3.77,0,0,0,.45.07l.28,0,.18,0,.13,0h.11l.17,0,.13,0a2.59,2.59,0,0,0,.38-.12l.19-.08.22-.12a3.09,3.09,0,0,0,1.5-2l.24-1.1.41,1a1.43,1.43,0,0,1,.11.53v3.42a2,2,0,0,1-.59,1.41l-.69.69a1.84,1.84,0,0,1-1.3.54Zm30.43.6a2.13,2.13,0,0,1-.74,1.62L55.91,55A2.59,2.59,0,0,0,55,57.25l2,17a1,1,0,0,1-1,1.08H40.52a1,1,0,0,1-1-1.08l2-18a.8.8,0,0,0-.16-.57l-3.24-4.19L37.37,49H55.25a2,2,0,0,0,1.38-.57l1.62-1.62a1.93,1.93,0,0,0,.57-1.37v-4.1c0-1.29-.83-3.48-2.06-3.92l-.23-.08V34.16h.35A6,6,0,0,1,62.4,38a7.77,7.77,0,0,1,.52,1.5Zm4.58-.6h-3V39.88h3Zm9.15,6.66a1.49,1.49,0,0,1-1.49,1.49H70.59a1.49,1.49,0,0,1-1.49-1.49V31.74a1.49,1.49,0,0,1,1.49-1.49h4.58a1.49,1.49,0,0,1,1.49,1.49Zm4.24-4.72a1.49,1.49,0,0,1-1.49,1.49H78.26V35h1.15a1.49,1.49,0,0,1,1.49,1.49Z"/></svg>