<svg xmlns="http://www.w3.org/2000/svg" viewBox="0 0 100 101.05"><defs><style>.a,.c,.d{fill:none;}.a,.b,.c,.d{stroke:#606468;stroke-width:1.7px;}.a,.b{stroke-linecap:round;}.a,.b,.c{stroke-linejoin:round;}.b,.e{fill:#fff;}.d{stroke-miterlimit:10;}.e{font-size:7px;font-family:MyriadPro-Bold, Myriad Pro;}.f{font-weight:700;letter-spacing:0.1em;}.g{font-family:MyriadPro-Regular, Myriad Pro;}.h{letter-spacing:-0.01em;}.i{letter-spacing:-0.01em;}.j{letter-spacing:-0.01em;}.k{letter-spacing:0.02em;}.l{letter-spacing:0em;}.m{letter-spacing:0em;}</style></defs><title>tp-live</title><polyline class="a" points="74.7 83.85 74.7 69.02 71.33 69.02 71.33 83.85"/><path class="b" d="M75.58,66.88A2.62,2.62,0,1,1,73,64.26,2.63,2.63,0,0,1,75.58,66.88Z"/><path class="c" d="M70.24,66.61a49.84,49.84,0,0,1-20.37,4.11,49.84,49.84,0,0,1-20.37-4.11"/><path class="c" d="M71.61,69.3a50.41,50.41,0,0,1-21.74,4.77,50.59,50.59,0,0,1-21.1-4.47"/><path class="a" d="M23.76,66.61a43,43,0,0,1-6.45,2.3"/><path class="a" d="M25.14,69.3a46.89,46.89,0,0,1-7.41,2.8"/><path class="a" d="M76.24,66.61a43,43,0,0,0,6.45,2.3"/><path class="a" d="M74.86,69.3a46.89,46.89,0,0,0,7.41,2.8"/><polyline class="a" points="28.51 84.15 28.51 69.03 25.14 69.03 25.14 84.15"/><path class="b" d="M29.39,66.88a2.62,2.62,0,1,1-2.62-2.62A2.63,2.63,0,0,1,29.39,66.88Z"/><rect class="d" x="31.96" y="24.26" width="36.09" height="28.71"/><rect class="d" x="27.35" y="19.87" width="45.29" height="37.49"/><line class="c" x1="27.35" y1="57.36" x2="31.96" y2="52.97"/><line class="c" x1="68.04" y1="24.26" x2="72.65" y2="19.87"/><polyline class="c" points="40.14 52.97 49.07 44.04 58.07 53.05"/><polyline class="c" points="53.23 48.2 61.76 39.67 67.75 45.67"/><circle class="c" cx="42.46" cy="34.33" r="4.72"/><text class="e" transform="translate(0 -28.45)"><tspan class="f">LIVE</tspan><tspan class="g"><tspan class="h" x="0" y="11.4">E</tspan><tspan class="i" x="3.4" y="11.4">v</tspan><tspan x="6.69" y="11.4">er-chan</tspan><tspan class="j" x="28.1" y="11.4">g</tspan><tspan x="31.98" y="11.4">ing a</tspan><tspan class="k" x="46.27" y="11.4">r</tspan><tspan x="48.73" y="11.4">t </tspan><tspan class="l" x="52.53" y="11.4">e</tspan><tspan x="56.01" y="11.4">xhibits and </tspan><tspan x="0" y="19.8">install</tspan><tspan class="m" x="17.29" y="19.8">a</tspan><tspan x="20.64" y="19.8">tions</tspan></tspan></text></svg>