<svg xmlns="http://www.w3.org/2000/svg" viewBox="0 0 100 101.05"><defs><style>.a{fill:#606468;}.b{fill:none;stroke:#606468;stroke-linecap:round;stroke-miterlimit:10;stroke-width:1.29px;}</style></defs><title>tp-learn</title><path class="a" d="M74.05,39.16s0-.08,0-.12L74,39,72,28.83a.64.64,0,0,0-.68-.53h-.87V18.92a.6.6,0,0,0-.67-.67h-41a.67.67,0,0,0-.67.67.6.6,0,0,0,.67.67h6.73V31.06a.75.75,0,0,0,.28.53l23.88.15a.77.77,0,0,0,.52-.68V19.59h9.06V28.3h-.87a.63.63,0,0,0-.68.52l-2,10.28a.37.37,0,0,0,.1.37,1.06,1.06,0,0,0,.6.34h7A.6.6,0,0,0,74.05,39.16ZM58.84,30.4H37V19.59H58.84Zm8.22,8.1,1.67-8.86h1.91l1.67,8.86Z"/><path class="a" d="M52.81,62.55c6.78-2.31,11.44-9.18,11.44-17.77a21.68,21.68,0,0,0-4.34-13.21.94.94,0,0,1-.2.1H58a18.53,18.53,0,0,1,3.38,5.71c-6.74,5.33-15.42.88-19.72-3.54a.77.77,0,0,0-.69-.22,13.51,13.51,0,0,0-7.16,4.3,18.62,18.62,0,0,1,3.66-6.37H35.71l-.12-.1a21.65,21.65,0,0,0-4.44,13.35c0,8.58,4.66,15.46,11.44,17.77-5.08,1.51-13.86,6.72-13.86,13.37v7.34h1.54V75.92c0-3.59,3.31-6.89,6.9-9.16L47.7,82.19,58.22,66.75c3.59,2.27,6.9,5.58,6.9,9.16v7.34h1.54V75.92C66.66,69.27,57.89,64.06,52.81,62.55ZM32.69,44.78a21.77,21.77,0,0,1,.25-3.25c.29-.46,3.41-5.27,7.92-6.32,4.7,4.63,13.74,9,21,3.71a21.4,21.4,0,0,1,.81,5.86c0,9.73-6.45,17.06-15,17.06S32.69,54.51,32.69,44.78ZM38.5,66a17.2,17.2,0,0,1,6.34-2.31l-2.39,8.1Zm9.2,13.48-4.12-6,2.88-9.76h2.49l2.88,9.76Zm5.25-7.69-2.39-8.1A17.18,17.18,0,0,1,56.89,66Z"/><ellipse class="a" cx="39.19" cy="44.99" rx="1.42" ry="1.81"/><ellipse class="a" cx="56.2" cy="44.99" rx="1.42" ry="1.81"/><path class="a" d="M47.7,50.92a.77.77,0,0,0,.77-.77V44.25a.77.77,0,1,0-1.54,0v5.89A.77.77,0,0,0,47.7,50.92Z"/><path class="b" d="M41.76,54.32a8.8,8.8,0,0,0,5.94,2.44A9.53,9.53,0,0,0,54,54.32"/></svg>