<svg xmlns="http://www.w3.org/2000/svg" viewBox="0 0 100 101.05"><defs><style>.a,.b{fill:none;stroke:#606468;stroke-miterlimit:10;stroke-width:2px;}.b{stroke-linecap:round;}.c{font-size:7px;fill:#fff;font-family:MyriadPro-Bold, Myriad Pro;}.d{font-weight:700;letter-spacing:0.1em;}.e{letter-spacing:0.11em;}.f{letter-spacing:0.01em;}.g{letter-spacing:0.1em;}.h{font-family:MyriadPro-Regular, Myriad Pro;}.i{letter-spacing:-0.03em;}.j{letter-spacing:0.02em;}.k{letter-spacing:-0.01em;}</style></defs><title>tp-play</title><polygon class="a" points="22.93 40.36 52.3 48.56 40.01 76.8 18.82 70.88 20.13 61.16 22.93 40.36"/><polygon class="a" points="50.78 39.99 81.18 37.51 79.43 68.26 57.5 70.04 50.78 39.99"/><line class="a" x1="20.13" y1="61.16" x2="49.38" y2="53.78"/><line class="a" x1="53.86" y1="53.78" x2="79.98" y2="58.58"/><line class="b" x1="41.53" y1="33.61" x2="36.72" y2="26.19"/><line class="b" x1="46.84" y1="30.37" x2="46" y2="19.07"/><line class="b" x1="53.86" y1="31.6" x2="58.16" y2="23.87"/><line class="b" x1="45" y1="51.65" x2="41.53" y2="61.16"/><line class="b" x1="75.5" y1="44.15" x2="75.5" y2="53.78"/><text class="c" transform="translate(0 -28.28)"><tspan class="d">P<tspan class="e" x="4.77" y="0">L</tspan><tspan class="f" x="9.09" y="0">A</tspan><tspan class="g" x="13.71" y="0">Y</tspan></tspan><tspan class="h"><tspan class="i" x="0" y="11.4">W</tspan><tspan x="5.69" y="11.4">ee</tspan><tspan class="j" x="12.7" y="11.4">k</tspan><tspan x="16.11" y="11.4">ly member hap</tspan><tspan class="k" x="60.23" y="11.4">p</tspan><tspan x="64.16" y="11.4">y hour</tspan></tspan></text></svg>