<svg xmlns="http://www.w3.org/2000/svg" viewBox="0 0 100 101.05"><defs><style>.a,.c{fill:#fff;}.a,.b{stroke:#606468;stroke-miterlimit:10;stroke-width:2px;}.b{fill:none;}.c{font-size:7px;font-family:MyriadPro-Bold, Myriad Pro;}.d{font-weight:700;letter-spacing:0.1em;}.e{letter-spacing:0.11em;}.f{letter-spacing:0.01em;}.g{letter-spacing:0.1em;}.h{font-family:MyriadPro-Regular, Myriad Pro;}.i{letter-spacing:0em;}.j{letter-spacing:-0.01em;}.k{letter-spacing:0.01em;}.l{letter-spacing:0em;}.m{letter-spacing:0.01em;}</style></defs><title>tp-play</title><rect class="a" x="48.6" y="35.02" width="2.8" height="22.69"/><rect class="b" x="30.26" y="73.79" width="39.47" height="3.93"/><polygon class="a" points="75.25 83.39 64.35 57.07 64.35 53.82 35.65 53.82 35.65 57.28 24.84 83.39 29.2 83.39 39.82 57.71 60.27 57.71 70.95 83.39 75.25 83.39"/><rect class="a" x="22.66" y="65.71" width="15.2" height="3.89"/><rect class="a" x="62.14" y="65.71" width="15.2" height="3.89"/><rect class="a" x="30.26" y="49.93" width="39.47" height="3.89"/><path class="a" d="M77.33,35.78c0-8.45-12.22-15.29-27.29-15.29S22.75,27.33,22.75,35.78Z"/><path class="a" d="M50,20.49s15.19,6.35,15.37,15.29"/><path class="a" d="M50,20.49S34.81,26.84,34.63,35.78"/><line class="a" x1="50" y1="35.78" x2="50.04" y2="20.49"/><text class="c" transform="translate(0 -28.28)"><tspan class="d">P<tspan class="e" x="4.77" y="0">L</tspan><tspan class="f" x="9.09" y="0">A</tspan><tspan class="g" x="13.71" y="0">Y</tspan></tspan><tspan class="h"><tspan class="i" x="0" y="11.4">R</tspan><tspan x="3.79" y="11.4">oof-</tspan><tspan class="j" x="14.86" y="11.4">t</tspan><tspan x="17.14" y="11.4">op a</tspan><tspan class="k" x="29.82" y="11.4">c</tspan><tspan class="l" x="33.05" y="11.4">tivi</tspan><tspan class="m" x="42.01" y="11.4">t</tspan><tspan x="44.39" y="11.4">y spa</tspan><tspan class="j" x="59.29" y="11.4">c</tspan><tspan x="62.39" y="11.4">e</tspan></tspan></text></svg>