<svg xmlns="http://www.w3.org/2000/svg" viewBox="0 0 100 101.05"><defs><style>.a,.d{fill:none;}.a,.b,.d{stroke:#606468;stroke-linejoin:round;stroke-width:1.7px;}.a,.b{stroke-linecap:round;}.b,.c,.e{fill:#fff;}.e{font-size:7px;font-family:MyriadPro-Bold, Myriad Pro;}.f{font-weight:700;letter-spacing:0.1em;}.g{letter-spacing:0.11em;}.h{letter-spacing:0.01em;}.i{letter-spacing:0.1em;}.j{font-family:MyriadPro-Regular, Myriad Pro;}.k{letter-spacing:0.01em;}.l{letter-spacing:-0.01em;}.m{letter-spacing:0em;}</style></defs><title>tp-play</title><rect class="a" x="38.92" y="23.12" width="22.75" height="37.38"/><line class="a" x1="32.76" y1="76.69" x2="38.92" y2="60.5"/><line class="a" x1="67.79" y1="76.56" x2="61.68" y2="60.5"/><polygon class="b" points="58.3 67.86 38.92 60.5 38.92 59.63 38.92 23.12 58.3 27.47 58.3 67.86"/><path class="c" d="M75.42,67.6A58.94,58.94,0,0,1,50,73.17a59.13,59.13,0,0,1-24.67-5.22l.86-3.49A58.25,58.25,0,0,0,50,69.26a65.05,65.05,0,0,0,7.76-.46,55,55,0,0,0,16.06-4.34Z"/><polyline class="a" points="79.04 82.02 79.04 67.28 75.09 67.28 75.09 82.02"/><path class="b" d="M80.06,64.77A3.07,3.07,0,0,1,77,67.84a3.07,3.07,0,0,1-3.07-3.07,3.07,3.07,0,1,1,6.14,0Z"/><path class="d" d="M26.18,64.46A58.25,58.25,0,0,0,50,69.26a65.05,65.05,0,0,0,7.76-.46,55,55,0,0,0,16.06-4.34"/><path class="d" d="M75.42,67.6A58.94,58.94,0,0,1,50,73.17a59.13,59.13,0,0,1-24.67-5.22"/><path class="a" d="M19.47,64.46a50.49,50.49,0,0,1-7.54,2.69"/><path class="a" d="M21.08,67.6a54.56,54.56,0,0,1-8.66,3.27"/><path class="a" d="M80.53,64.16a50.27,50.27,0,0,0,7.54,2.7"/><path class="a" d="M79.22,67.6a54.8,54.8,0,0,0,8.66,3.27"/><polyline class="a" points="25.02 82.04 25.02 67.29 21.07 67.29 21.07 82.04"/><path class="b" d="M26,64.77A3.07,3.07,0,1,1,23,61.7,3.07,3.07,0,0,1,26,64.77Z"/><line class="b" x1="51.81" y1="46.41" x2="54.22" y2="46.87"/><text class="e" transform="translate(0 -28.28)"><tspan class="f">P<tspan class="g" x="4.77" y="0">L</tspan><tspan class="h" x="9.09" y="0">A</tspan><tspan class="i" x="13.71" y="0">Y</tspan></tspan><tspan class="j"><tspan class="k" x="0" y="11.4">M</tspan><tspan x="5.67" y="11.4">ember-only e</tspan><tspan class="l" x="43.8" y="11.4">v</tspan><tspan x="47.09" y="11.4">e</tspan><tspan class="m" x="50.6" y="11.4">n</tspan><tspan x="54.46" y="11.4">ts</tspan></tspan></text></svg>