<svg xmlns="http://www.w3.org/2000/svg" viewBox="0 0 100 101.05"><defs><style>.a{fill:#606468;}.b{fill:none;stroke:#606468;stroke-miterlimit:10;stroke-width:1.51px;}</style></defs><title>tp-play</title><path class="a" d="M82.39,39.92H82V36.84a9.52,9.52,0,0,0-9.51-9.51H29.68a9.52,9.52,0,0,0-9.5,9.51v3.07h-.41a6.34,6.34,0,0,0-6.18,6.31V61.77A7.45,7.45,0,0,0,21,69.2H81.14a7.45,7.45,0,0,0,7.44-7.44V46.22A6.34,6.34,0,0,0,82.39,39.92ZM26.77,67.52H21a5.76,5.76,0,0,1-5.75-5.75V46.22A4.63,4.63,0,0,1,19.9,41.6h2.25a4.63,4.63,0,0,1,4.63,4.63Zm46.93,0H28.46V57.14H73.71Zm0-12.07H28.46V46.22a6.34,6.34,0,0,0-6.19-6.31h-.41V36.84A7.83,7.83,0,0,1,29.68,29h42.8a7.83,7.83,0,0,1,7.82,7.82v3.07h-.41a6.35,6.35,0,0,0-6.18,6.31ZM86.9,61.77a5.76,5.76,0,0,1-5.75,5.75H75.39V46.22A4.63,4.63,0,0,1,80,41.6h2.25a4.63,4.63,0,0,1,4.63,4.63Z"/><path class="b" d="M34.9,68.33v1.27a2.31,2.31,0,0,1-2.11,2.47H22.42a2.31,2.31,0,0,1-2.11-2.47V68.33Z"/><path class="b" d="M81.81,68.33v1.27a2.31,2.31,0,0,1-2.11,2.47H69.34a2.31,2.31,0,0,1-2.11-2.47V68.33Z"/></svg>