<svg id="Layer_1" data-name="Layer 1" xmlns="http://www.w3.org/2000/svg" viewBox="0 0 100 101.05"><defs><style>.cls-1,.cls-2{fill:#606468;}.cls-2{stroke:#606468;stroke-linecap:round;stroke-miterlimit:10;stroke-width:2px;}</style></defs><title>TP icons</title><g id="rest3"><path class="cls-1" d="M14.95,70.14h-2.5a1,1,0,0,0,0,2h75.1a1,1,0,0,0,0-2h-2.5v-52a1,1,0,0,0-1-1H64.75a1,1,0,0,0-1,1v36.4l-2.35-8.8V33.54a.94.94,0,0,0-1-1H42a.94.94,0,0,0-1,1v36.7H34.35Zm68.1-51v51.1H65.75V19.14ZM43,34.54H59.4V46a1.43,1.43,0,0,0,.2.6l4,11.1v12.5H43Z"/><path class="cls-1" d="M22.94,44.25h1.65v4.48H22.94Z"/><path class="cls-1" d="M22.94,53.48h1.65V58H22.94Z"/><path class="cls-1" d="M22.94,62.71h1.65V67.2H22.94Z"/><path class="cls-1" d="M19.64,44.25h1.65v4.48H19.64Z"/><path class="cls-1" d="M19.64,53.48h1.65V58H19.64Z"/><path class="cls-1" d="M19.64,62.71h1.65V67.2H19.64Z"/><path class="cls-1" d="M26.24,44.25h1.65v4.48H26.24Z"/><path class="cls-1" d="M22.94,35h1.65v4.48H22.94Z"/><path class="cls-1" d="M19.64,35h1.65v4.48H19.64Z"/><path class="cls-1" d="M26.24,35h1.65v4.48H26.24Z"/><path class="cls-1" d="M26.24,53.48h1.65V58H26.24Z"/><path class="cls-1" d="M26.24,62.71h1.65V67.2H26.24Z"/><path class="cls-1" d="M50.52,49.52h1.65V54H50.52Z"/><path class="cls-1" d="M50.52,56.12h1.65V60.6H50.52Z"/><path class="cls-1" d="M50.52,62.71h1.65V67.2H50.52Z"/><path class="cls-1" d="M46.4,49.52h1.65V54H46.4Z"/><path class="cls-1" d="M46.4,56.12h1.65V60.6H46.4Z"/><path class="cls-1" d="M46.4,62.71h1.65V67.2H46.4Z"/><path class="cls-1" d="M54.65,49.52h1.65V54H54.65Z"/><path class="cls-1" d="M50.52,42.4h1.65v4.48H50.52Z"/><path class="cls-1" d="M46.4,42.4h1.65v4.48H46.4Z"/><path class="cls-1" d="M54.65,42.4h1.65v4.48H54.65Z"/><path class="cls-1" d="M54.65,56.12h1.65V60.6H54.65Z"/><path class="cls-1" d="M54.65,62.71h1.65V67.2H54.65Z"/><path class="cls-1" d="M73.69,46.86h1.65v4.48H73.69Z"/><path class="cls-1" d="M73.69,54.79h1.65v4.48H73.69Z"/><path class="cls-1" d="M73.69,62.71h1.65V67.2H73.69Z"/><path class="cls-1" d="M69.57,46.86h1.65v4.48H69.57Z"/><path class="cls-1" d="M69.57,54.79h1.65v4.48H69.57Z"/><path class="cls-1" d="M69.57,62.71h1.65V67.2H69.57Z"/><path class="cls-1" d="M77.81,46.86h1.65v4.48H77.81Z"/><path class="cls-1" d="M73.69,38.93h1.65v4.48H73.69Z"/><path class="cls-1" d="M69.57,38.93h1.65v4.48H69.57Z"/><path class="cls-1" d="M77.81,38.93h1.65v4.48H77.81Z"/><path class="cls-1" d="M73.69,31h1.65v4.48H73.69Z"/><path class="cls-1" d="M69.57,31h1.65v4.48H69.57Z"/><path class="cls-1" d="M77.81,31h1.65v4.48H77.81Z"/><path class="cls-1" d="M73.69,23.08h1.65v4.48H73.69Z"/><path class="cls-1" d="M69.57,23.08h1.65v4.48H69.57Z"/><path class="cls-1" d="M77.81,23.08h1.65v4.48H77.81Z"/><path class="cls-1" d="M77.81,54.79h1.65v4.48H77.81Z"/><path class="cls-1" d="M77.81,62.71h1.65V67.2H77.81Z"/><path class="cls-1" d="M43.55,70.49h-.82V48.24a3.28,3.28,0,0,0-2.13-3L32.83,42.7V25.82A.83.83,0,0,0,31.77,25L16.86,29.5a3.18,3.18,0,0,0-2.17,2.91V70.49h-.82a.82.82,0,1,0,0,1.65H43.55a.82.82,0,0,0,0-1.65ZM40.08,46.85a1.63,1.63,0,0,1,1,1.39V70.49H32.83V44.43ZM16.35,32.41a1.54,1.54,0,0,1,1-1.33l13.85-4.15V70.49H16.35Z"/><line class="cls-2" x1="22.94" y1="85.04" x2="75.73" y2="85.04"/><line class="cls-2" x1="39.09" y1="78.17" x2="46.67" y2="78.17"/><line class="cls-2" x1="20.8" y1="78.17" x2="28.38" y2="78.17"/><line class="cls-2" x1="57.38" y1="78.17" x2="64.96" y2="78.17"/><line class="cls-2" x1="75.67" y1="78.17" x2="83.25" y2="78.17"/></g></svg>