<svg xmlns="http://www.w3.org/2000/svg" viewBox="0 0 100 101.05"><defs><style>.a{fill:#606468;}</style></defs><title>tp-rest</title><path class="a" d="M86.38,58.53h0l-7.9-18.8v-3.8a17,17,0,0,0-17-17H40.68a17,17,0,0,0-17,17v3.8l-7.9,18.8h0a.6.6,0,0,0-.1.4v22.2a1,1,0,0,0,2,0v-7.2h66.8v7.2a1,1,0,0,0,2,0v-7.5a.6.6,0,0,0-.1-.4c0-.1.1-.2.1-.4v-14A.37.37,0,0,0,86.38,58.53ZM25,41.92h9.8v.3a5,5,0,0,0,5,5h22.6a5,5,0,0,0,5-5v-.3h9.8l6.7,16H18.18Zm37.4-9.4a3,3,0,0,1,3,3v6.7a3,3,0,0,1-3,3H52.08V32.53Zm-12.3,12.7H39.78a3,3,0,0,1-3-3v-6.7a3,3,0,0,1,3-3h10.3Zm-9.4-24.3h20.8a15,15,0,0,1,15,15v4h-9.1v-4.4a5,5,0,0,0-5-5H39.78a5,5,0,0,0-5,5v4.3h-9.1v-4A15,15,0,0,1,40.68,20.92Zm-23,39h66.8v12H17.68Z"/></svg>