<svg xmlns="http://www.w3.org/2000/svg" viewBox="0 0 100 101.05"><defs><style>.a{fill:#606468;}.b{font-size:7px;fill:#fff;font-family:MyriadPro-Bold, Myriad Pro;}.c{font-weight:700;letter-spacing:0.1em;}.d{font-family:MyriadPro-Regular, Myriad Pro;}.e{letter-spacing:0.01em;}.f{letter-spacing:-0.01em;}.g{letter-spacing:0em;}.h{letter-spacing:-0.01em;}.i{letter-spacing:0em;}.j{letter-spacing:-0.01em;}.k{letter-spacing:0.01em;}.l{letter-spacing:0.02em;}</style></defs><title>tp-rest</title><path class="a" d="M51.08,62.27a1,1,0,0,0-1,1v4a1,1,0,1,0,2.09,0v-4A1,1,0,0,0,51.08,62.27Z"/><path class="a" d="M51.08,52.47a1,1,0,0,0-1,1v4.78a1,1,0,1,0,2.09,0V53.51A1,1,0,0,0,51.08,52.47Z"/><path class="a" d="M51.08,71.45a1,1,0,0,0-1,1v4.78a1,1,0,1,0,2.09,0V72.49A1,1,0,0,0,51.08,71.45Z"/><path class="a" d="M64.47,18.18H54A14,14,0,0,0,40.12,30.94v.13H40A16.6,16.6,0,0,0,24.71,46.35v.11l-.1,0a1,1,0,0,0-.72.93,1,1,0,0,0,1,1H57.3a1,1,0,0,0,1-1,1,1,0,0,0-.72-.93l-.1,0v-.11A16.34,16.34,0,0,0,42.35,31.08h-.15l0-.15A11.94,11.94,0,0,1,54,20.26H64.47A11.75,11.75,0,0,1,76.21,32V81.83a1,1,0,0,0,2.09,0V32A13.85,13.85,0,0,0,64.47,18.18Zm-9.05,28v.16H26.78v-.16a14.36,14.36,0,0,1,28.62,0Z"/><path class="a" d="M41,73.84a1,1,0,0,0-1,1v2.39a1,1,0,0,0,2.09,0V74.88A1,1,0,0,0,41,73.84Z"/><path class="a" d="M31,62.27a1,1,0,0,0-1,1v4a1,1,0,0,0,2.09,0v-4A1,1,0,0,0,31,62.27Z"/><path class="a" d="M41,59.56a1.13,1.13,0,0,0-1,1v9.15a1.13,1.13,0,0,0,1,1,1,1,0,0,0,1-1V60.61A1,1,0,0,0,41,59.56Z"/><path class="a" d="M31,52.47a1,1,0,0,0-1,1v4.78a1,1,0,0,0,2.09,0V53.51A1,1,0,0,0,31,52.47Z"/><path class="a" d="M31,71.45a1,1,0,0,0-1,1v4.78a1,1,0,0,0,2.09,0V72.49A1,1,0,0,0,31,71.45Z"/><path class="a" d="M41,52.47a1,1,0,0,0-1,1V55.9a1.07,1.07,0,0,0,1,1,1,1,0,0,0,1-1V53.51A1,1,0,0,0,41,52.47Z"/><text class="b" transform="translate(0 -29.7)"><tspan class="c">REST</tspan><tspan class="d"><tspan class="e" x="0" y="11.4">M</tspan><tspan x="5.67" y="11.4">ember dis</tspan><tspan class="f" x="34.64" y="11.4">c</tspan><tspan x="37.73" y="11.4">ou</tspan><tspan class="g" x="45.43" y="11.4">n</tspan><tspan x="49.29" y="11.4">ts on spa </tspan><tspan x="0" y="19.8">t</tspan><tspan class="h" x="2.32" y="19.8">r</tspan><tspan x="4.54" y="19.8">e</tspan><tspan class="i" x="8.04" y="19.8">a</tspan><tspan x="11.39" y="19.8">tme</tspan><tspan class="g" x="23.05" y="19.8">n</tspan><tspan x="26.91" y="19.8">ts and other li</tspan><tspan class="j" x="66.78" y="19.8">f</tspan><tspan x="68.74" y="19.8">es</tspan><tspan class="k" x="75.02" y="19.8">t</tspan><tspan x="77.4" y="19.8">yle </tspan><tspan x="0" y="28.2">pa</tspan><tspan class="l" x="7.36" y="28.2">r</tspan><tspan x="9.81" y="28.2">tners</tspan></tspan></text></svg>