<svg xmlns="http://www.w3.org/2000/svg" viewBox="0 0 100 101.05"><defs><style>.a{fill:#606468;}</style></defs><title>tp-work</title><polygon class="a" points="85.29 80.06 86.58 80.06 81.99 53.81 86.16 27.63 84.55 27.63 80.38 54.49 73.98 54.49 73.98 37.66 26.02 37.66 26.02 54.49 19.62 54.49 15.46 27.63 13.84 27.63 18.01 54.03 13.42 80.06 14.71 80.06 19.42 56.35 26.02 56.35 26.02 80.06 27.53 80.06 27.53 56.35 33.96 56.35 36.26 80.06 37.77 80.06 35.04 54.49 27.43 54.49 27.43 39.08 72.57 39.08 72.57 54.49 64.96 54.49 62.23 80.06 63.74 80.06 66.04 56.35 72.47 56.35 72.47 80.06 73.98 80.06 73.98 56.35 80.58 56.35 85.29 80.06"/><polygon class="a" points="73.98 41.92 26.02 41.92 27.43 43.34 72.57 43.34 73.98 41.92"/></svg>