<svg xmlns="http://www.w3.org/2000/svg" viewBox="0 0 100 101.05"><defs><style>.a{fill:none;}.a,.c,.d,.e,.f{stroke:#606468;stroke-miterlimit:10;stroke-width:1.8px;}.a,.c,.f{stroke-linecap:round;}.b,.e,.f{fill:#606468;}.c,.d{fill:#fff;}</style></defs><title>tp-work</title><circle class="a" cx="59.74" cy="55.09" r="22.51"/><path class="a" d="M75.38,47.36A17.45,17.45,0,0,1,71.79,67.7"/><path class="a" d="M59.74,37.64a17.38,17.38,0,0,1,7.85,1.86"/><circle class="a" cx="59.74" cy="55.09" r="5.84"/><circle class="b" cx="59.74" cy="55.09" r="1.16"/><path class="c" d="M49.29,42.47V52.71c0,7.28-6.46,13.17-14.43,13.17h-.27c-8,0-14.43-5.9-14.43-13.17V42.47"/><rect class="d" x="24.54" y="23.61" width="20.37" height="37.73" rx="10.09" ry="10.09"/><line class="a" x1="24.59" y1="77.6" x2="44.58" y2="77.6"/><line class="a" x1="24.54" y1="36.48" x2="44.9" y2="36.48"/><line class="e" x1="34.58" y1="65.88" x2="34.58" y2="77.6"/><circle class="b" cx="34.72" cy="54.79" r="1.46"/><line class="c" x1="34.58" y1="29.81" x2="34.58" y2="23.61"/><line class="c" x1="38.22" y1="27.84" x2="38.22" y2="24.2"/><line class="c" x1="31.04" y1="27.91" x2="31.04" y2="24.27"/><line class="f" x1="24.54" y1="45.55" x2="18.17" y2="45.55"/><line class="f" x1="51.28" y1="45.55" x2="44.9" y2="45.55"/></svg>