<svg xmlns="http://www.w3.org/2000/svg" viewBox="0 0 100 101.05"><defs><style>.a,.c{fill:none;}.a,.b,.c{stroke:#606468;stroke-miterlimit:10;stroke-width:2px;}.a,.b{stroke-linecap:round;}.b{fill:#fff;}</style></defs><title>tp-work</title><path class="a" d="M32.83,78.85a2.4,2.4,0,0,1-2.4,2.4h0a2.4,2.4,0,0,1-2.4-2.4v-11a2.4,2.4,0,0,1,2.4-2.4h0a2.4,2.4,0,0,1,2.4,2.4Z"/><path class="a" d="M62.68,78.85a2.4,2.4,0,0,1-2.4,2.4h0a2.4,2.4,0,0,1-2.4-2.4v-11a2.4,2.4,0,0,1,2.4-2.4h0a2.4,2.4,0,0,1,2.4,2.4Z"/><polygon class="b" points="66.51 59.1 66.51 75.91 24.02 75.91 24.02 59.1 30.95 43.92 59.94 43.92 66.51 59.1"/><polygon class="a" points="60.11 58.13 56.59 49.15 34.21 49.15 30.45 58.13 60.11 58.13"/><circle class="a" cx="30.44" cy="66.78" r="2.22"/><circle class="a" cx="60.1" cy="66.78" r="2.22"/><line class="a" x1="38.33" y1="65.3" x2="52.23" y2="65.3"/><line class="a" x1="40.9" y1="68.56" x2="49.67" y2="68.56"/><rect class="a" x="17.14" y="53.64" width="5.1" height="3.81" rx="1.57" ry="1.57"/><line class="a" x1="21.31" y1="57.32" x2="23.97" y2="59.97"/><rect class="a" x="68.23" y="53.64" width="5.1" height="3.81" rx="1.57" ry="1.57"/><line class="a" x1="69.16" y1="57.32" x2="66.51" y2="59.97"/><line class="a" x1="54.02" y1="49.15" x2="45.33" y2="58.13"/><line class="a" x1="48.67" y1="49.15" x2="39.98" y2="58.13"/><line class="a" x1="15.18" y1="81.26" x2="87.19" y2="81.26"/><line class="a" x1="78.56" y1="81.26" x2="78.56" y2="38.38"/><circle class="a" cx="78.56" cy="28.98" r="9.4"/><path class="c" d="M77.86,30.13h1.41A1.75,1.75,0,0,0,81,28.38h0a1.75,1.75,0,0,0-1.75-1.75H77.86v6.46"/></svg>