<svg xmlns="http://www.w3.org/2000/svg" viewBox="0 0 100 101.05"><defs><style>.a{fill:#606468;}</style></defs><title>tp-work</title><path class="a" d="M49.68,73A21.09,21.09,0,1,1,70.77,51.88,21.11,21.11,0,0,1,49.68,73Zm0-40.65A19.56,19.56,0,1,0,69.24,51.88,19.58,19.58,0,0,0,49.68,32.32Z"/><path class="a" d="M49.23,27.42a.77.77,0,0,1-.76-.77V15.17a.77.77,0,0,1,1.53,0V26.65A.77.77,0,0,1,49.23,27.42Z"/><path class="a" d="M49.23,89.41a.77.77,0,0,1-.76-.77V77.16a.77.77,0,0,1,1.53,0V88.64A.77.77,0,0,1,49.23,89.41Z"/><path class="a" d="M86.73,52.67H75.25a.77.77,0,0,1,0-1.53H86.73a.77.77,0,1,1,0,1.53Z"/><path class="a" d="M24.75,52.67H13.27a.77.77,0,1,1,0-1.53H24.75a.77.77,0,0,1,0,1.53Z"/><path class="a" d="M67.32,34.27A.77.77,0,0,1,66.78,33l8.12-8.12A.77.77,0,0,1,76,25.93L67.86,34A.76.76,0,0,1,67.32,34.27Z"/><path class="a" d="M23.48,78.11a.77.77,0,0,1-.54-1.31l8.12-8.12a.77.77,0,1,1,1.08,1.08L24,77.88A.76.76,0,0,1,23.48,78.11Z"/><path class="a" d="M76,78.65a.76.76,0,0,1-.54-.22l-8.12-8.12a.77.77,0,1,1,1.08-1.08l8.12,8.12A.77.77,0,0,1,76,78.65Z"/><path class="a" d="M32.14,34.82a.76.76,0,0,1-.54-.22l-8.12-8.12a.77.77,0,1,1,1.08-1.08l8.12,8.12a.77.77,0,0,1-.54,1.31Z"/><path class="a" d="M69.19,44.16a.77.77,0,0,1-.29-1.47l15.75-6.35a.77.77,0,1,1,.58,1.42L69.48,44.1A.77.77,0,0,1,69.19,44.16Z"/><path class="a" d="M15.64,66.73a.77.77,0,0,1-.29-1.47L29.69,58.7a.77.77,0,1,1,.58,1.42L15.93,66.67A.77.77,0,0,1,15.64,66.73Z"/><path class="a" d="M62.95,85.66a.77.77,0,0,1-.71-.48l-5.11-13.3a.77.77,0,1,1,1.42-.58l5.11,13.3a.76.76,0,0,1-.71,1.05Z"/><path class="a" d="M41.82,33.15a.76.76,0,0,1-.71-.48L34.91,18.18a.77.77,0,0,1,1.42-.58l6.2,14.49a.76.76,0,0,1-.71,1.05Z"/><path class="a" d="M83.7,66.73a.76.76,0,0,1-.3-.06L69.23,60.48a.77.77,0,0,1,.59-1.41L84,65.26a.77.77,0,0,1-.3,1.47Z"/><path class="a" d="M30.48,44.14a.76.76,0,0,1-.3-.06L15.34,37.74a.77.77,0,0,1,.59-1.41l14.84,6.33a.77.77,0,0,1-.3,1.47Z"/><path class="a" d="M36.36,86.19a.76.76,0,0,1-.3-.06.77.77,0,0,1-.41-1l5.2-13.74a.77.77,0,0,1,1.41.59l-5.2,13.74A.77.77,0,0,1,36.36,86.19Z"/><path class="a" d="M58,33.4a.75.75,0,0,1-.3-.06.76.76,0,0,1-.41-1L63.5,17.6a.77.77,0,1,1,1.41.59L58.66,32.93A.76.76,0,0,1,58,33.4Z"/></svg>