<?xml version="1.0" encoding="utf-8"?>
<!-- Generator: Adobe Illustrator 21.0.0, SVG Export Plug-In . SVG Version: 6.00 Build 0)  -->
<svg version="1.1" id="Layer_1" xmlns="http://www.w3.org/2000/svg" xmlns:xlink="http://www.w3.org/1999/xlink" x="0px" y="0px"
	 viewBox="0 0 72.2 51.8" style="enable-background:new 0 0 72.2 51.8;" xml:space="preserve">
<style type="text/css">
	.st0{fill:#5E6366;}
</style>
<title>Asset 1</title>
<g id="Layer_2">
	<g id="Layer_1-2">
		<path class="st0" d="M41.5,50.2c-2.5-3-7-3.3-10-0.8c-0.3,0.2-0.6,0.5-0.8,0.8c-0.3,0.4-0.3,1,0,1.4c0.2,0.2,0.5,0.3,0.8,0.1
			c0,0,0.1-0.1,0.1-0.1c2.2-2.5,6-2.7,8.5-0.5c0.2,0.2,0.4,0.3,0.5,0.5c0.1,0.1,0.3,0.2,0.4,0.2c0.2,0,0.3-0.1,0.4-0.2
			C41.8,51.2,41.8,50.6,41.5,50.2z"/>
		<path class="st0" d="M71.9,16.5C62.3,5.8,49.6,0,36.1,0S9.9,5.8,0.3,16.5c-0.4,0.5-0.4,1.1,0,1.6c0.1,0.2,0.3,0.3,0.5,0.3
			c0.2,0,0.4-0.1,0.5-0.3C10.6,7.8,22.9,2,36.1,2s25.5,5.7,34.8,16c0.1,0.2,0.3,0.2,0.5,0.2c0.2,0,0.4-0.1,0.5-0.3
			C72.3,17.6,72.3,16.9,71.9,16.5z"/>
		<path class="st0" d="M62,27.4c-6.5-7.5-16-11.8-25.9-11.9c-9.9,0.1-19.4,4.4-25.9,11.9c-0.4,0.5-0.4,1.1,0,1.6
			c0.2,0.3,0.7,0.3,0.9,0.1c0,0,0,0,0.1-0.1c6.3-7.2,15.3-11.3,24.9-11.4c9.6,0,18.7,4.2,25,11.4c0.2,0.3,0.7,0.3,0.9,0.1
			c0,0,0,0,0.1-0.1C62.4,28.5,62.4,27.9,62,27.4z"/>
		<path class="st0" d="M52.3,38.1c-7.7-9-21.2-10-30.2-2.3c-0.8,0.7-1.6,1.5-2.3,2.3c-0.4,0.5-0.4,1.1,0,1.6
			c0.2,0.3,0.7,0.3,0.9,0.1c0,0,0,0,0.1-0.1c7.2-8.4,19.9-9.3,28.3-2.1c0.8,0.6,1.5,1.3,2.1,2.1c0.2,0.3,0.7,0.3,0.9,0.1
			c0,0,0,0,0.1-0.1C52.7,39.3,52.7,38.6,52.3,38.1z"/>
	</g>
</g>
</svg>
