<svg xmlns="http://www.w3.org/2000/svg" viewBox="0 0 315.99 192.72"><defs><style>.cls-1{fill:#5e6366;}.cls-2{fill:#bdb099;}.cls-3{fill:#ebe8e0;}.cls-4{fill:#b0b0b0;}.cls-5{fill:#b8d1d9;}.cls-6{fill:#d9d6cc;}</style></defs><title>Asset 1</title><g id="Layer_2" data-name="Layer 2"><g id="Layer_1-2" data-name="Layer 1"><polygon class="cls-1" points="8.1 191.03 8.1 177.83 13.79 171.55 27.84 191.03 37.29 191.03 19.23 165.79 36.78 145.91 27.2 145.91 8.1 167.54 8.1 145.91 0 145.91 0 191.03 8.1 191.03"/><path class="cls-1" d="M74.48,191l4-8.73H97.91l4,8.73h8.6L88.26,143.71,65.93,191ZM88.2,160.62l6.67,14.69H81.53Z"/><polygon class="cls-1" points="151.27 191.03 151.27 171.88 168.81 171.88 168.81 164.56 151.27 164.56 151.27 153.23 170.49 153.23 170.49 145.91 143.17 145.91 143.17 191.03 151.27 191.03"/><polygon class="cls-1" points="212.73 191.03 212.73 162.68 243.47 192.72 243.47 145.91 235.38 145.91 235.38 174.4 204.62 144.23 204.62 191.02 212.73 191.03"/><path class="cls-1" d="M279.42,173.74a21.6,21.6,0,0,0,1.26,7.67,14.74,14.74,0,0,0,3.85,5.68q5.14,4.65,13.2,4.66a21.58,21.58,0,0,0,7.3-1.17,17.22,17.22,0,0,0,5.85-3.49,14.61,14.61,0,0,0,3.84-5.68,21.38,21.38,0,0,0,1.27-7.67V145.91H307.9v27a14.94,14.94,0,0,1-1.24,6.43,8.38,8.38,0,0,1-3.5,3.83,11,11,0,0,1-5.43,1.26,9.73,9.73,0,0,1-7.51-2.85c-1.79-1.9-2.69-4.8-2.71-8.67v-27h-8.09Z"/><g id="_Group_" data-name="&lt;Group&gt;"><polygon class="cls-2" points="200.34 79.1 200.34 89.7 178.5 89.7 155.87 57.49 164.56 50.55 200.34 79.1"/><polygon class="cls-3" points="200.34 22 200.34 72.71 168.57 47.35 200.34 22"/><polygon class="cls-4" points="200.34 5 200.34 15.6 164.56 44.15 155.87 37.22 178.5 5 200.34 5"/><polygon class="cls-5" points="115.64 51.7 142.34 89.7 115.64 89.7 115.64 51.7"/><polygon class="cls-6" points="142.34 5 115.64 43 115.64 5 142.34 5"/><path class="cls-1" d="M205.35,77.92V92.2a2.5,2.5,0,0,1-2.5,2.5H177.21a2.49,2.49,0,0,1-2.05-1.06l-24.73-35.2a2.5,2.5,0,0,1,.48-3.39l9.65-7.7-9.65-7.69a2.5,2.5,0,0,1-.48-3.39l24.73-35.2A2.5,2.5,0,0,1,177.21,0h25.64a2.5,2.5,0,0,1,2.5,2.5V77.92Zm-5,11.78V79.1L164.57,50.55l-8.7,6.94L178.51,89.7Zm0-17V22L168.58,47.35Zm0-57.11V5H178.51L155.87,37.22l8.7,6.93Z"/><path class="cls-1" d="M147.16,0a2.5,2.5,0,0,1,2.05,3.94L118.7,47.35l30.51,43.42a2.5,2.5,0,0,1-2.05,3.93h-34a2.5,2.5,0,0,1-2.5-2.5V2.5a2.5,2.5,0,0,1,2.5-2.5ZM115.65,43l26.7-38h-26.7Zm26.7,46.7-26.7-38v38Z"/></g></g></g></svg>