<svg xmlns="http://www.w3.org/2000/svg" viewBox="0 0 459.7 94.7"><defs><style>.cls-1{fill:#5e6366;}.cls-2{fill:#bdb099;}.cls-3{fill:#ebe8e0;}.cls-4{fill:#b0b0b0;}.cls-5{fill:#b8d1d9;}.cls-6{fill:#d9d6cc;}</style></defs><title>Asset 1</title><g id="Layer_2" data-name="Layer 2"><g id="Layer_1-2" data-name="Layer 1"><polygon class="cls-1" points="151.81 70.17 151.81 56.97 157.5 50.69 171.55 70.17 181 70.17 162.94 44.92 180.49 25.05 170.91 25.05 151.81 46.67 151.81 25.05 143.71 25.05 143.71 70.17 151.81 70.17"/><path class="cls-1" d="M218.19,70.17l4-8.73h19.42l4,8.73h8.6L232,22.85,209.64,70.17Zm13.72-30.41,6.67,14.69H225.24Z"/><polygon class="cls-1" points="294.98 70.17 294.98 51.02 312.52 51.02 312.52 43.7 294.98 43.7 294.98 32.37 314.2 32.37 314.2 25.05 286.88 25.05 286.88 70.17 294.98 70.17"/><polygon class="cls-1" points="356.44 70.17 356.44 41.81 387.18 71.86 387.18 25.05 379.09 25.05 379.09 53.53 348.33 23.36 348.33 70.16 356.44 70.17"/><path class="cls-1" d="M423.13,52.88a21.6,21.6,0,0,0,1.26,7.67,14.74,14.74,0,0,0,3.85,5.68q5.14,4.65,13.2,4.66a21.58,21.58,0,0,0,7.3-1.17,17.22,17.22,0,0,0,5.85-3.49,14.61,14.61,0,0,0,3.84-5.68,21.38,21.38,0,0,0,1.27-7.67V25h-8.09V52a14.94,14.94,0,0,1-1.24,6.43,8.38,8.38,0,0,1-3.5,3.83,11,11,0,0,1-5.43,1.26,9.73,9.73,0,0,1-7.51-2.85c-1.79-1.9-2.69-4.8-2.71-8.67V25h-8.09Z"/><g id="_Group_" data-name=" Group "><polygon class="cls-2" points="89.7 79.1 89.7 89.7 67.86 89.7 45.22 57.49 53.92 50.55 89.7 79.1"/><polygon class="cls-3" points="89.7 22 89.7 72.71 57.93 47.35 89.7 22"/><polygon class="cls-4" points="89.7 5 89.7 15.6 53.92 44.15 45.22 37.22 67.86 5 89.7 5"/><polygon class="cls-5" points="5 51.7 31.7 89.7 5 89.7 5 51.7"/><polygon class="cls-6" points="31.7 5 5 43 5 5 31.7 5"/><path class="cls-1" d="M94.7,77.92V92.2a2.5,2.5,0,0,1-2.5,2.5H66.56a2.49,2.49,0,0,1-2-1.06L39.78,58.44a2.5,2.5,0,0,1,.48-3.39l9.65-7.7-9.65-7.69a2.5,2.5,0,0,1-.48-3.39L64.51,1.07a2.5,2.5,0,0,1,2-1.07H92.2a2.5,2.5,0,0,1,2.5,2.5Zm-5,11.78V79.1L53.92,50.55l-8.7,6.94L67.86,89.7Zm0-17V22L57.93,47.35Zm0-57.11V5H67.86L45.22,37.22l8.7,6.93Z"/><path class="cls-1" d="M36.51,0a2.5,2.5,0,0,1,2,3.94L8.05,47.35,38.56,90.77a2.5,2.5,0,0,1-2,3.93H2.5A2.5,2.5,0,0,1,0,92.2V2.5A2.5,2.5,0,0,1,2.5,0ZM5,43,31.7,5H5ZM31.7,89.7,5,51.7v38Z"/></g></g></g></svg>